<svg preserveAspectRatio="none" width="100%" height="100%" overflow="visible" style="display: block;" viewBox="0 0 30 30" fill="none" xmlns="http://www.w3.org/2000/svg">
<g id="x">
<path id="Vector" fill-rule="evenodd" clip-rule="evenodd" d="M24.0322 10.3883C24.8071 10.6023 25.4162 11.2306 25.6237 12.0301C25.9985 13.4778 26 16.5 26 16.5C26 16.5 26 19.5221 25.6237 20.9698C25.4162 21.7694 24.8071 22.3977 24.0322 22.6116C22.6291 23 17 23 17 23C17 23 11.3709 23 9.96772 22.6116C9.1928 22.3977 8.5838 21.7694 8.37635 20.9698C8 19.5221 8 16.5 8 16.5C8 16.5 8 13.4778 8.37635 12.0301C8.5838 11.2306 9.1928 10.6023 9.96772 10.3883C11.3709 10 17 10 17 10C17 10 22.6291 10 24.0322 10.3883ZM19.8751 16.5003L15.1988 19.2855V13.715L19.8751 16.5003Z" fill="var(--fill-0, #FEFEFE)"/>
</g>
</svg>
