<svg preserveAspectRatio="none" width="100%" height="100%" overflow="visible" style="display: block;" viewBox="0 0 30 30" fill="none" xmlns="http://www.w3.org/2000/svg">
<g id="x">
<path id="Vector" d="M15.9247 6C16.9376 6.00167 17.4509 6.00704 17.8945 6.02024L18.0692 6.02595C18.2709 6.03312 18.47 6.04212 18.7101 6.05337C19.6678 6.09763 20.3211 6.24913 20.8949 6.47189C21.4881 6.70065 21.9892 7.00966 22.4894 7.50993C22.9889 8.0102 23.298 8.51271 23.5275 9.10448C23.7494 9.67751 23.901 10.3315 23.946 11.2893C23.9567 11.5293 23.9653 11.7284 23.9725 11.9302L23.9781 12.1049C23.9913 12.5484 23.9973 13.0618 23.9992 14.0747L23.9999 14.7458C24 14.8278 24 14.9124 24 14.9997L23.9999 15.2536L23.9994 15.9247C23.9977 16.9376 23.9923 17.451 23.9791 17.8944L23.9734 18.0691C23.9662 18.271 23.9572 18.4701 23.946 18.7101C23.9017 19.6679 23.7494 20.3211 23.5275 20.8949C23.2987 21.4882 22.9889 21.9892 22.4894 22.4895C21.9892 22.989 21.4859 23.298 20.8949 23.5275C20.3211 23.7495 19.6678 23.901 18.7101 23.946C18.47 23.9567 18.2709 23.9654 18.0692 23.9725L17.8945 23.9781C17.4509 23.9914 16.9376 23.9973 15.9247 23.9993L15.2536 24C15.1716 24 15.087 24 14.9997 24H14.7458L14.0746 23.9994C13.0617 23.9977 12.5484 23.9924 12.1049 23.9791L11.9302 23.9734C11.7284 23.9662 11.5293 23.9572 11.2893 23.946C10.3315 23.9018 9.67899 23.7495 9.10448 23.5275C8.51195 23.2988 8.01018 22.989 7.50992 22.4895C7.00965 21.9892 6.70139 21.4859 6.47189 20.8949C6.24913 20.3211 6.09837 19.6679 6.05337 18.7101C6.04268 18.4701 6.03396 18.271 6.02689 18.0691L6.02123 17.8944C6.00806 17.451 6.00206 16.9376 6.00012 15.9247L6 14.0747C6.00167 13.0618 6.00703 12.5484 6.02023 12.1049L6.02595 11.9302C6.03312 11.7284 6.04212 11.5293 6.05337 11.2893C6.09762 10.3308 6.24913 9.67825 6.47189 9.10448C6.70064 8.51196 7.00965 8.0102 7.50992 7.50993C8.01018 7.00966 8.51271 6.7014 9.10448 6.47189C9.67825 6.24913 10.3308 6.09837 11.2893 6.05337C11.5293 6.04269 11.7284 6.03397 11.9302 6.0269L12.1049 6.02124C12.5484 6.00806 13.0617 6.00206 14.0746 6.00012L15.9247 6ZM14.9997 10.4995C12.513 10.4995 10.4995 12.5152 10.4995 14.9997C10.4995 17.4864 12.5152 19.4998 14.9997 19.4998C17.4864 19.4998 19.4998 17.4842 19.4998 14.9997C19.4998 12.513 17.4841 10.4995 14.9997 10.4995ZM14.9997 12.2996C16.491 12.2996 17.6998 13.508 17.6998 14.9997C17.6998 16.4909 16.4913 17.6998 14.9997 17.6998C13.5084 17.6998 12.2996 16.4914 12.2996 14.9997C12.2996 13.5084 13.508 12.2996 14.9997 12.2996ZM19.7249 9.14949C19.1045 9.14949 18.5998 9.65342 18.5998 10.2738C18.5998 10.8941 19.1037 11.3988 19.7249 11.3988C20.3452 11.3988 20.8499 10.8949 20.8499 10.2738C20.8499 9.65342 20.3443 9.14871 19.7249 9.14949Z" fill="var(--fill-0, #FEFEFE)"/>
</g>
</svg>
