<svg preserveAspectRatio="none" width="100%" height="100%" overflow="visible" style="display: block;" viewBox="0 0 30 30" fill="none" xmlns="http://www.w3.org/2000/svg">
<g id="x">
<path id="Vector" d="M21.3352 21.339H18.6697V17.1622C18.6697 16.1662 18.6495 14.8845 17.2807 14.8845C15.891 14.8845 15.6787 15.9683 15.6787 17.0887V21.339H13.0132V12.75H15.5737V13.9207H15.6082C15.966 13.2457 16.836 12.5332 18.1357 12.5332C20.8365 12.5332 21.336 14.3108 21.336 16.6245L21.3352 21.339ZM10.0027 11.5747C9.14475 11.5747 8.4555 10.8803 8.4555 10.026C8.4555 9.1725 9.1455 8.47875 10.0027 8.47875C10.8577 8.47875 11.5508 9.1725 11.5508 10.026C11.5508 10.8803 10.857 11.5747 10.0027 11.5747ZM11.3393 21.339H8.66625V12.75H11.3393V21.339ZM22.6687 6H7.32825C6.594 6 6 6.5805 6 7.29675V22.7033C6 23.4202 6.594 24 7.32825 24H22.6665C23.4 24 24 23.4202 24 22.7033V7.29675C24 6.5805 23.4 6 22.6665 6H22.6687Z" fill="var(--fill-0, #FEFEFE)"/>
</g>
</svg>
