<svg preserveAspectRatio="none" width="100%" height="100%" overflow="visible" style="display: block;" viewBox="0 0 30 30" fill="none" xmlns="http://www.w3.org/2000/svg">
<g id="x">
<path id="Vector" d="M18.4024 24V17.0344H20.7347L21.0838 14.3265H18.4024V12.5976C18.4024 11.8136 18.62 11.2793 19.7443 11.2793L21.1783 11.2787V8.85676C20.9302 8.82382 20.0791 8.75006 19.0888 8.75006C17.0213 8.75006 15.606 10.012 15.606 12.3295V14.3265H13.2677V17.0344H15.606V24H7C6.44772 24 6 23.5523 6 23V7C6 6.44772 6.44772 6 7 6H23C23.5523 6 24 6.44772 24 7V23C24 23.5523 23.5523 24 23 24H18.4024Z" fill="var(--fill-0, #FEFEFE)"/>
</g>
</svg>
