<svg width="167" height="35" viewBox="0 0 167 35" fill="none" xmlns="http://www.w3.org/2000/svg">
<g clip-path="url(#clip0_4164_3563)">
<path d="M35.5358 27.3027H13.4766V34.0497H35.5358V27.3027Z" fill="#FEFEFE"/>
<path d="M13.4786 34.049C20.9226 34.049 26.9572 28.0144 26.9572 20.5704C26.9572 13.1264 20.9226 7.0918 13.4786 7.0918C6.03457 7.0918 0 13.1264 0 20.5704C0 28.0144 6.03457 34.049 13.4786 34.049Z" fill="#FEFEFE"/>
<path d="M34.4035 34.0492C43.8059 34.0492 51.4281 26.427 51.4281 17.0246C51.4281 7.62217 43.8059 0 34.4035 0C25.0011 0 17.3789 7.62217 17.3789 17.0246C17.3789 26.427 25.0011 34.0492 34.4035 34.0492Z" fill="#FEFEFE"/>
<path d="M72.813 26.9913C70.818 26.9913 69.089 26.5638 67.626 25.7088C66.182 24.8348 65.0705 23.6283 64.2915 22.0893C63.5125 20.5313 63.123 18.7358 63.123 16.7028C63.123 14.6698 63.5125 12.8743 64.2915 11.3163C65.0705 9.75829 66.182 8.54229 67.626 7.66829C69.089 6.79429 70.818 6.35729 72.813 6.35729C75.245 6.35729 77.2306 6.95579 78.7696 8.15279C80.3276 9.34979 81.2965 11.0408 81.6765 13.2258H77.43C77.1831 12.1618 76.67 11.3353 75.891 10.7463C75.112 10.1383 74.0765 9.83429 72.7845 9.83429C71.5875 9.83429 70.5521 10.1193 69.6781 10.6893C68.8231 11.2403 68.1676 12.0288 67.7116 13.0548C67.2746 14.0808 67.056 15.2968 67.056 16.7028C67.056 18.1088 67.2746 19.3248 67.7116 20.3508C68.1676 21.3768 68.8231 22.1653 69.6781 22.7163C70.5521 23.2483 71.5875 23.5143 72.7845 23.5143C74.0765 23.5143 75.112 23.2388 75.891 22.6878C76.67 22.1368 77.1831 21.3578 77.43 20.3508H81.6765C81.2965 22.4218 80.3276 24.0463 78.7696 25.2243C77.2306 26.4023 75.245 26.9913 72.813 26.9913ZM84.5372 26.6493V6.30029H88.3846V26.6493H84.5372ZM98.5565 26.9913C97.1885 26.9913 95.9536 26.6778 94.8516 26.0508C93.7686 25.4238 92.904 24.5498 92.258 23.4288C91.612 22.3078 91.2891 21.0253 91.2891 19.5813C91.2891 18.1183 91.612 16.8358 92.258 15.7338C92.904 14.6128 93.778 13.7388 94.88 13.1118C95.982 12.4848 97.2075 12.1713 98.5565 12.1713C99.9435 12.1713 101.178 12.4848 102.261 13.1118C103.363 13.7388 104.228 14.6128 104.855 15.7338C105.501 16.8358 105.824 18.1183 105.824 19.5813C105.824 21.0443 105.501 22.3363 104.855 23.4573C104.228 24.5593 103.363 25.4238 102.261 26.0508C101.159 26.6778 99.9245 26.9913 98.5565 26.9913ZM98.5565 23.6853C99.1645 23.6853 99.7155 23.5333 100.209 23.2293C100.722 22.9253 101.131 22.4693 101.435 21.8613C101.758 21.2533 101.919 20.4933 101.919 19.5813C101.919 18.6693 101.767 17.9093 101.463 17.3013C101.159 16.6933 100.751 16.2373 100.238 15.9333C99.744 15.6293 99.1931 15.4773 98.585 15.4773C97.977 15.4773 97.4165 15.6293 96.9035 15.9333C96.3905 16.2373 95.9821 16.6933 95.6781 17.3013C95.3741 17.9093 95.222 18.6693 95.222 19.5813C95.222 20.4933 95.3741 21.2533 95.6781 21.8613C95.9821 22.4693 96.3905 22.9253 96.9035 23.2293C97.4165 23.5333 97.9675 23.6853 98.5565 23.6853ZM113.995 26.9913C112.836 26.9913 111.839 26.7443 111.003 26.2503C110.186 25.7563 109.559 25.0248 109.122 24.0558C108.704 23.0678 108.495 21.8613 108.495 20.4363V12.5133H112.314V20.0943C112.314 21.2723 112.551 22.1748 113.026 22.8018C113.501 23.4288 114.252 23.7423 115.278 23.7423C115.943 23.7423 116.522 23.5903 117.016 23.2863C117.529 22.9633 117.928 22.5168 118.213 21.9468C118.517 21.3578 118.669 20.6453 118.669 19.8093V12.5133H122.517V26.6493H119.154L118.84 24.3123H118.812C118.375 25.1293 117.748 25.7848 116.931 26.2788C116.114 26.7538 115.135 26.9913 113.995 26.9913ZM132.196 26.9913C130.866 26.9913 129.688 26.6683 128.662 26.0223C127.636 25.3763 126.819 24.4928 126.211 23.3718C125.622 22.2508 125.327 20.9778 125.327 19.5528C125.327 18.1278 125.622 16.8643 126.211 15.7623C126.819 14.6413 127.636 13.7673 128.662 13.1403C129.707 12.4943 130.894 12.1713 132.224 12.1713C133.288 12.1713 134.219 12.3708 135.017 12.7698C135.815 13.1688 136.452 13.7008 136.927 14.3658V6.30029H140.774V26.6493H137.411L137.041 24.5403H137.012C136.689 24.9963 136.3 25.4143 135.844 25.7943C135.407 26.1553 134.884 26.4403 134.276 26.6493C133.668 26.8773 132.975 26.9913 132.196 26.9913ZM133.136 23.6853C133.896 23.6853 134.561 23.5143 135.131 23.1723C135.72 22.8113 136.176 22.3268 136.499 21.7188C136.841 21.0918 137.012 20.3793 137.012 19.5813C137.012 18.7643 136.841 18.0518 136.499 17.4438C136.176 16.8168 135.72 16.3323 135.131 15.9903C134.561 15.6293 133.887 15.4488 133.108 15.4488C132.367 15.4488 131.702 15.6293 131.113 15.9903C130.524 16.3323 130.068 16.8168 129.745 17.4438C129.422 18.0708 129.26 18.7738 129.26 19.5528C129.26 20.3698 129.422 21.0918 129.745 21.7188C130.068 22.3268 130.524 22.8113 131.113 23.1723C131.702 23.5143 132.376 23.6853 133.136 23.6853ZM144.153 26.6493V6.30029H148.001V26.6493H144.153ZM153.299 32.7483L156.747 25.0533H155.921L150.135 12.5133H154.325L158.457 21.6048H158.486L162.162 12.5133H166.266L157.374 32.7483H153.299Z" fill="#FEFEFE"/>
</g>
<defs>
<clipPath id="clip0_4164_3563">
<rect width="167" height="35" fill="white"/>
</clipPath>
</defs>
</svg>
