<svg width="170" height="48" viewBox="0 0 170 48" fill="none" xmlns="http://www.w3.org/2000/svg">
<g clip-path="url(#clip0_4164_3575)">
<path d="M9.90076 19.2002H0.300781V28.8002H9.90076V19.2002Z" fill="#FEFEFE"/>
<path d="M19.4996 28.7998H29.0996V19.1998H19.4996V28.7998Z" fill="#FEFEFE"/>
<path d="M9.90039 19.1996L19.5004 9.59961V19.1996L9.90039 28.7996V19.1996Z" fill="#FEFEFE"/>
<path d="M19.5004 28.8002L9.90039 38.4002V28.8002L19.5004 19.2002V28.8002Z" fill="#FEFEFE"/>
<path d="M0.300781 19.2L19.5008 0V9.59999L9.90077 19.2H0.300781Z" fill="#FEFEFE"/>
<path d="M29.1004 28.7998L9.90039 47.9998V38.3998L19.5004 28.7998H29.1004Z" fill="#FEFEFE"/>
<path d="M50.0073 34.2796C48.4953 34.2796 47.0299 34.0649 45.6113 33.6356C44.2113 33.2063 43.1006 32.6369 42.2793 31.9276L43.5393 29.0996C44.342 29.7343 45.322 30.2569 46.4793 30.6676C47.6553 31.0596 48.8313 31.2556 50.0073 31.2556C51.4633 31.2556 52.5459 31.0223 53.2553 30.5556C53.9833 30.0889 54.3473 29.4729 54.3473 28.7076C54.3473 28.1476 54.1419 27.6903 53.7313 27.3356C53.3393 26.9623 52.8353 26.6729 52.2193 26.4676C51.6033 26.2623 50.7633 26.0289 49.6993 25.7676C48.2059 25.4129 46.9926 25.0583 46.0593 24.7036C45.1446 24.3489 44.3513 23.7983 43.6793 23.0516C43.026 22.2863 42.6993 21.2596 42.6993 19.9716C42.6993 18.8889 42.9886 17.9089 43.5673 17.0316C44.1646 16.1356 45.0513 15.4263 46.2273 14.9036C47.422 14.3809 48.8779 14.1196 50.5953 14.1196C51.7899 14.1196 52.9659 14.2689 54.1233 14.5676C55.2806 14.8663 56.2793 15.2956 57.1193 15.8556L55.9713 18.6836C55.1126 18.1796 54.2166 17.7969 53.2833 17.5356C52.3499 17.2743 51.4446 17.1436 50.5673 17.1436C49.1299 17.1436 48.0566 17.3863 47.3473 17.8716C46.6566 18.3569 46.3113 19.0009 46.3113 19.8036C46.3113 20.3636 46.5073 20.8209 46.8993 21.1756C47.31 21.5303 47.8233 21.8103 48.4393 22.0156C49.0553 22.2209 49.8953 22.4543 50.9593 22.7156C52.4153 23.0516 53.6099 23.4063 54.5433 23.7796C55.4766 24.1343 56.2699 24.6849 56.9233 25.4316C57.5953 26.1783 57.9313 27.1863 57.9313 28.4556C57.9313 29.5383 57.6326 30.5183 57.0353 31.3956C56.4566 32.2729 55.5699 32.9729 54.3753 33.4956C53.1806 34.0183 51.7246 34.2796 50.0073 34.2796Z" fill="#FEFEFE"/>
<path d="M61.2045 19.0478H64.7045V33.9998H61.2045V19.0478ZM62.9685 16.5838C62.3338 16.5838 61.8018 16.3878 61.3725 15.9958C60.9431 15.5851 60.7285 15.0811 60.7285 14.4838C60.7285 13.8865 60.9431 13.3918 61.3725 12.9998C61.8018 12.5891 62.3338 12.3838 62.9685 12.3838C63.6031 12.3838 64.1351 12.5798 64.5645 12.9718C64.9938 13.3451 65.2085 13.8211 65.2085 14.3998C65.2085 15.0158 64.9938 15.5385 64.5645 15.9678C64.1538 16.3785 63.6218 16.5838 62.9685 16.5838Z" fill="#FEFEFE"/>
<path d="M73.9198 34.1959C72.7065 34.1959 71.5211 34.0372 70.3638 33.7199C69.2065 33.4026 68.2825 33.0012 67.5918 32.5159L68.9358 29.8559C69.6078 30.3039 70.4105 30.6679 71.3438 30.9479C72.2958 31.2092 73.2291 31.3399 74.1438 31.3399C76.2345 31.3399 77.2798 30.7892 77.2798 29.6879C77.2798 29.1652 77.0091 28.8012 76.4678 28.5959C75.9451 28.3906 75.0958 28.1946 73.9198 28.0079C72.6878 27.8212 71.6798 27.6066 70.8958 27.3639C70.1305 27.1212 69.4585 26.7012 68.8798 26.1039C68.3198 25.4879 68.0398 24.6386 68.0398 23.5559C68.0398 22.1372 68.6278 21.0079 69.8038 20.1679C70.9985 19.3092 72.6038 18.8799 74.6198 18.8799C75.6465 18.8799 76.6731 19.0012 77.6998 19.2439C78.7265 19.4679 79.5665 19.7759 80.2198 20.1679L78.8758 22.8279C77.6065 22.0812 76.1785 21.7079 74.5918 21.7079C73.5651 21.7079 72.7811 21.8666 72.2398 22.1839C71.7171 22.4826 71.4558 22.8839 71.4558 23.3879C71.4558 23.9479 71.7358 24.3492 72.2958 24.5919C72.8745 24.8159 73.7611 25.0306 74.9558 25.2359C76.1505 25.4226 77.1305 25.6372 77.8958 25.8799C78.6611 26.1226 79.3145 26.5332 79.8558 27.1119C80.4158 27.6906 80.6958 28.5119 80.6958 29.5759C80.6958 30.9759 80.0891 32.0959 78.8758 32.9359C77.6625 33.7759 76.0105 34.1959 73.9198 34.1959Z" fill="#FEFEFE"/>
<path d="M97.4361 19.0479L90.4361 35.2039C89.7828 36.8279 88.9894 37.9666 88.0561 38.6199C87.1228 39.2919 85.9934 39.6279 84.6681 39.6279C83.9214 39.6279 83.1841 39.5066 82.4561 39.2639C81.7281 39.0212 81.1308 38.6852 80.6641 38.2558L82.0641 35.6798C82.4001 35.9972 82.7921 36.2491 83.2401 36.4359C83.7068 36.6226 84.1734 36.7159 84.6401 36.7159C85.2561 36.7159 85.7601 36.5572 86.1521 36.2399C86.5628 35.9226 86.9361 35.3906 87.2721 34.6439L87.5241 34.0559L81.0001 19.0479H84.6401L89.3441 30.1079L94.0761 19.0479H97.4361Z" fill="#FEFEFE"/>
<path d="M107.911 18.8799C109.367 18.8799 110.664 19.1972 111.803 19.8319C112.96 20.4666 113.866 21.3626 114.519 22.5199C115.172 23.6772 115.499 25.0119 115.499 26.5239C115.499 28.0359 115.172 29.3799 114.519 30.5559C113.866 31.7132 112.96 32.6092 111.803 33.2439C110.664 33.8786 109.367 34.1959 107.911 34.1959C105.895 34.1959 104.299 33.5239 103.123 32.1799V39.4319H99.623V19.0479H102.955V21.0079C103.534 20.2986 104.243 19.7666 105.083 19.4119C105.942 19.0572 106.884 18.8799 107.911 18.8799ZM107.519 31.1999C108.807 31.1999 109.862 30.7706 110.683 29.9119C111.523 29.0532 111.943 27.9239 111.943 26.5239C111.943 25.1239 111.523 23.9946 110.683 23.1359C109.862 22.2772 108.807 21.8479 107.519 21.8479C106.679 21.8479 105.923 22.0439 105.251 22.4359C104.579 22.8092 104.047 23.3506 103.655 24.0599C103.263 24.7692 103.067 25.5906 103.067 26.5239C103.067 27.4572 103.263 28.2786 103.655 28.9879C104.047 29.6972 104.579 30.2479 105.251 30.6399C105.923 31.0132 106.679 31.1999 107.519 31.1999Z" fill="#FEFEFE"/>
<path d="M127.302 18.8796C129.188 18.8796 130.7 19.4303 131.838 20.5316C132.977 21.6329 133.546 23.2663 133.546 25.4316V33.9996H130.046V25.8796C130.046 24.5729 129.738 23.5929 129.122 22.9396C128.506 22.2676 127.629 21.9316 126.49 21.9316C125.202 21.9316 124.185 22.3236 123.438 23.1076C122.692 23.8729 122.318 24.9836 122.318 26.4396V33.9996H118.818V13.2236H122.318V20.7836C122.897 20.1676 123.606 19.7009 124.446 19.3836C125.305 19.0476 126.257 18.8796 127.302 18.8796Z" fill="#FEFEFE"/>
<path d="M152.461 19.0479V33.9999H149.129V32.0958C148.569 32.7678 147.869 33.2906 147.029 33.6639C146.189 34.0186 145.284 34.1959 144.313 34.1959C142.316 34.1959 140.739 33.6452 139.581 32.5439C138.443 31.4239 137.873 29.7719 137.873 27.5879V19.0479H141.373V27.1119C141.373 28.4559 141.672 29.4639 142.269 30.1359C142.885 30.7892 143.753 31.1159 144.873 31.1159C146.124 31.1159 147.113 30.7332 147.841 29.9679C148.588 29.1839 148.961 28.0639 148.961 26.6079V19.0479H152.461Z" fill="#FEFEFE"/>
<path d="M161.666 34.1959C160.453 34.1959 159.267 34.0372 158.11 33.7199C156.953 33.4026 156.029 33.0012 155.338 32.5159L156.682 29.8559C157.354 30.3039 158.157 30.6679 159.09 30.9479C160.042 31.2092 160.975 31.3399 161.89 31.3399C163.981 31.3399 165.026 30.7892 165.026 29.6879C165.026 29.1652 164.755 28.8012 164.214 28.5959C163.691 28.3906 162.842 28.1946 161.666 28.0079C160.434 27.8212 159.426 27.6066 158.642 27.3639C157.877 27.1212 157.205 26.7012 156.626 26.1039C156.066 25.4879 155.786 24.6386 155.786 23.5559C155.786 22.1372 156.374 21.0079 157.55 20.1679C158.745 19.3092 160.35 18.8799 162.366 18.8799C163.393 18.8799 164.419 19.0012 165.446 19.2439C166.473 19.4679 167.313 19.7759 167.966 20.1679L166.622 22.8279C165.353 22.0812 163.925 21.7079 162.338 21.7079C161.311 21.7079 160.527 21.8666 159.986 22.1839C159.463 22.4826 159.202 22.8839 159.202 23.3879C159.202 23.9479 159.482 24.3492 160.042 24.5919C160.621 24.8159 161.507 25.0306 162.702 25.2359C163.897 25.4226 164.877 25.6372 165.642 25.8799C166.407 26.1226 167.061 26.5332 167.602 27.1119C168.162 27.6906 168.442 28.5119 168.442 29.5759C168.442 30.9759 167.835 32.0959 166.622 32.9359C165.409 33.7759 163.757 34.1959 161.666 34.1959Z" fill="#FEFEFE"/>
</g>
<defs>
<clipPath id="clip0_4164_3575">
<rect width="170" height="48" fill="white"/>
</clipPath>
</defs>
</svg>
