<svg width="162" height="47" viewBox="0 0 162 47" fill="none" xmlns="http://www.w3.org/2000/svg">
<g clip-path="url(#clip0_4164_3558)">
<path d="M61.3698 32.8541V16.0106H55.5273V12.9041H71.0313V16.0106H65.1888V32.8541H61.3698ZM77.8422 33.1961C76.3792 33.1961 75.0872 32.8921 73.9662 32.2841C72.8642 31.6761 71.9997 30.8211 71.3727 29.7191C70.7457 28.6171 70.4322 27.3536 70.4322 25.9286C70.4322 24.4466 70.7362 23.1451 71.3442 22.0241C71.9712 20.8841 72.8357 19.9911 73.9377 19.3451C75.0587 18.6991 76.3602 18.3761 77.8422 18.3761C79.2482 18.3761 80.4832 18.6801 81.5472 19.2881C82.6302 19.8961 83.4662 20.7321 84.0552 21.7961C84.6632 22.8411 84.9672 24.0286 84.9672 25.3586C84.9672 25.5486 84.9672 25.7671 84.9672 26.0141C84.9672 26.2421 84.9482 26.4796 84.9102 26.7266H73.1967V24.3611H81.0912C81.0342 23.4871 80.7017 22.7841 80.0937 22.2521C79.4857 21.7201 78.7352 21.4541 77.8422 21.4541C77.1772 21.4541 76.5692 21.6061 76.0182 21.9101C75.4672 22.1951 75.0302 22.6416 74.7072 23.2496C74.3842 23.8386 74.2227 24.5796 74.2227 25.4726V26.2991C74.2227 27.0591 74.3747 27.7241 74.6787 28.2941C74.9827 28.8641 75.4007 29.3011 75.9327 29.6051C76.4837 29.9091 77.1012 30.0611 77.7852 30.0611C78.4882 30.0611 79.0772 29.9091 79.5522 29.6051C80.0272 29.2821 80.3882 28.8736 80.6352 28.3796H84.5682C84.3022 29.2726 83.8462 30.0896 83.2002 30.8306C82.5732 31.5526 81.8037 32.1321 80.8917 32.5691C79.9797 32.9871 78.9632 33.1961 77.8422 33.1961ZM94.6534 33.1961C93.1904 33.1961 91.8984 32.8826 90.7774 32.2556C89.6564 31.6096 88.7824 30.7356 88.1554 29.6336C87.5284 28.5126 87.2149 27.2301 87.2149 25.7861C87.2149 24.3421 87.5284 23.0691 88.1554 21.9671C88.8014 20.8461 89.6849 19.9721 90.8059 19.3451C91.9269 18.6991 93.2094 18.3761 94.6534 18.3761C96.4774 18.3761 98.0164 18.8511 99.2704 19.8011C100.524 20.7511 101.322 22.0621 101.664 23.7341H97.5889C97.4179 23.0691 97.0664 22.5561 96.5344 22.1951C96.0024 21.8341 95.3659 21.6536 94.6249 21.6536C93.9789 21.6536 93.3899 21.8151 92.8579 22.1381C92.3259 22.4611 91.9079 22.9361 91.6039 23.5631C91.2999 24.1711 91.1479 24.9121 91.1479 25.7861C91.1479 26.4321 91.2334 27.0116 91.4044 27.5246C91.5944 28.0186 91.8414 28.4461 92.1454 28.8071C92.4684 29.1681 92.8389 29.4436 93.2569 29.6336C93.6749 29.8236 94.1309 29.9186 94.6249 29.9186C95.1189 29.9186 95.5654 29.8426 95.9644 29.6906C96.3634 29.5196 96.7054 29.2821 96.9904 28.9781C97.2754 28.6551 97.4749 28.2751 97.5889 27.8381H101.664C101.322 29.4721 100.524 30.7736 99.2704 31.7426C98.0164 32.7116 96.4774 33.1961 94.6534 33.1961ZM104.537 32.8541V12.5051H108.385V20.9126H108.413C108.888 20.1146 109.525 19.4971 110.323 19.0601C111.121 18.6041 112.052 18.3761 113.116 18.3761C114.275 18.3761 115.253 18.6326 116.051 19.1456C116.868 19.6396 117.486 20.3711 117.904 21.3401C118.341 22.3091 118.559 23.5061 118.559 24.9311V32.8541H114.74V25.2731C114.74 24.0951 114.503 23.1926 114.028 22.5656C113.572 21.9386 112.831 21.6251 111.805 21.6251C111.159 21.6251 110.57 21.7866 110.038 22.1096C109.525 22.4136 109.116 22.8601 108.812 23.4491C108.527 24.0191 108.385 24.7221 108.385 25.5581V32.8541H104.537ZM121.682 32.8541V12.5051H125.529V32.8541H121.682ZM129.089 32.8541V18.7181H132.937V32.8541H129.089ZM131.027 16.7516C130.324 16.7516 129.745 16.5426 129.289 16.1246C128.852 15.7066 128.633 15.1841 128.633 14.5571C128.633 13.9301 128.852 13.4171 129.289 13.0181C129.745 12.6001 130.324 12.3911 131.027 12.3911C131.73 12.3911 132.3 12.6001 132.737 13.0181C133.193 13.4171 133.421 13.9301 133.421 14.5571C133.421 15.1841 133.193 15.7066 132.737 16.1246C132.3 16.5426 131.73 16.7516 131.027 16.7516ZM137.173 32.8541V17.3501C137.173 16.1721 137.373 15.2316 137.772 14.5286C138.19 13.8066 138.769 13.2936 139.51 12.9896C140.251 12.6666 141.125 12.5051 142.132 12.5051H143.7V15.7541H142.702C142.113 15.7541 141.686 15.8776 141.42 16.1246C141.154 16.3526 141.021 16.7611 141.021 17.3501V32.8541H137.173ZM135.264 21.8816V18.7181H143.985V21.8816H135.264ZM148.418 38.9531L151.866 31.2581H151.04L145.254 18.7181H149.444L153.576 27.8096H153.605L157.281 18.7181H161.385L152.493 38.9531H148.418Z" fill="#FEFEFE"/>
<path d="M24.4219 6.61053C24.4219 4.38047 27.1339 3.28139 28.6865 4.88225L42.9921 19.6331C43.9342 20.6046 44.4611 21.9047 44.4611 23.258V40.3319C44.4611 42.562 41.7491 43.6611 40.1965 42.0602L25.8909 27.3094C24.9488 26.3379 24.4219 25.0378 24.4219 23.6845V6.61053Z" fill="#FEFEFE"/>
<path d="M12 6.12567C12 3.89561 14.712 2.79652 16.2646 4.39738L30.3591 18.9305C31.4366 20.0416 32.0392 21.5286 32.0392 23.0763V39.8471C32.0392 42.0771 29.3272 43.1762 27.7747 41.5754L13.469 26.8245C12.5269 25.8531 12 24.5529 12 23.1997V6.12567Z" fill="#FEFEFE"/>
<path d="M0 6.61053C0 4.38047 2.71204 3.28139 4.26458 4.88225L18.5702 19.6331C19.5123 20.6046 20.0392 21.9047 20.0392 23.258V40.3319C20.0392 42.562 17.3272 43.6611 15.7747 42.0602L1.46905 27.3094C0.526897 26.3379 0 25.0378 0 23.6845V6.61053Z" fill="#FEFEFE"/>
</g>
<defs>
<clipPath id="clip0_4164_3558">
<rect width="162" height="47" fill="white"/>
</clipPath>
</defs>
</svg>
