<svg width="173" height="43" viewBox="0 0 173 43" fill="none" xmlns="http://www.w3.org/2000/svg">
<g clip-path="url(#clip0_4164_3554)">
<path d="M0 12.8918C0 12.3643 0.279984 11.8763 0.73546 11.6101L18.3677 1.30518C19.3574 0.726782 20.6013 1.44058 20.6013 2.58687V18.1153L10.41 12.04V42.1935H1.48452C0.664644 42.1935 0 41.5289 0 40.709V12.8918Z" fill="#FEFEFE"/>
<path d="M20.6016 18.1348L30.2118 24.0313C30.6518 24.3013 30.9199 24.7805 30.9199 25.2967V40.7096C30.9199 41.5295 30.2553 42.1941 29.4354 42.1941H22.0861C21.2662 42.1941 20.6016 41.5295 20.6016 40.7096V18.1348Z" fill="#FEFEFE"/>
<path d="M44.1582 34.7775L51.1692 14.8275H56.0712L63.0822 34.7775H59.0067L53.6202 18.618H53.5917L48.1767 34.7775H44.1582ZM47.3787 29.904L48.4047 26.9115H58.5507L59.5482 29.904H47.3787ZM65.2266 34.7775V20.6415H68.5896L68.9601 23.406H68.9886C69.3496 22.703 69.7771 22.1235 70.2711 21.6675C70.7841 21.1925 71.3636 20.8505 72.0096 20.6415C72.6556 20.4135 73.3776 20.2995 74.1756 20.2995V24.375H73.1211C72.5131 24.375 71.9526 24.4415 71.4396 24.5745C70.9456 24.7075 70.5181 24.926 70.1571 25.23C69.8151 25.534 69.5491 25.952 69.3591 26.484C69.1691 26.997 69.0741 27.643 69.0741 28.422V34.7775H65.2266ZM83.0635 35.1195C81.6005 35.1195 80.3085 34.806 79.1875 34.179C78.0665 33.533 77.1925 32.659 76.5655 31.557C75.9385 30.436 75.625 29.1535 75.625 27.7095C75.625 26.2655 75.9385 24.9925 76.5655 23.8905C77.2115 22.7695 78.095 21.8955 79.216 21.2685C80.337 20.6225 81.6195 20.2995 83.0635 20.2995C84.8875 20.2995 86.4265 20.7745 87.6805 21.7245C88.9345 22.6745 89.7325 23.9855 90.0745 25.6575H85.999C85.828 24.9925 85.4765 24.4795 84.9445 24.1185C84.4125 23.7575 83.776 23.577 83.035 23.577C82.389 23.577 81.8 23.7385 81.268 24.0615C80.736 24.3845 80.318 24.8595 80.014 25.4865C79.71 26.0945 79.558 26.8355 79.558 27.7095C79.558 28.3555 79.6435 28.935 79.8145 29.448C80.0045 29.942 80.2515 30.3695 80.5555 30.7305C80.8785 31.0915 81.249 31.367 81.667 31.557C82.085 31.747 82.541 31.842 83.035 31.842C83.529 31.842 83.9755 31.766 84.3745 31.614C84.7735 31.443 85.1155 31.2055 85.4005 30.9015C85.6855 30.5785 85.885 30.1985 85.999 29.7615H90.0745C89.7325 31.3955 88.9345 32.697 87.6805 33.666C86.4265 34.635 84.8875 35.1195 83.0635 35.1195ZM92.9479 34.7775V14.4285H96.7954V22.836H96.8239C97.2989 22.038 97.9354 21.4205 98.7334 20.9835C99.5314 20.5275 100.463 20.2995 101.527 20.2995C102.686 20.2995 103.664 20.556 104.462 21.069C105.279 21.563 105.897 22.2945 106.315 23.2635C106.752 24.2325 106.97 25.4295 106.97 26.8545V34.7775H103.151V27.1965C103.151 26.0185 102.914 25.116 102.439 24.489C101.983 23.862 101.242 23.5485 100.216 23.5485C99.5694 23.5485 98.9804 23.71 98.4484 24.033C97.9354 24.337 97.5269 24.7835 97.2229 25.3725C96.9379 25.9425 96.7954 26.6455 96.7954 27.4815V34.7775H92.9479ZM110.264 34.7775V20.6415H114.111V34.7775H110.264ZM112.202 18.675C111.499 18.675 110.919 18.466 110.463 18.048C110.026 17.63 109.808 17.1075 109.808 16.4805C109.808 15.8535 110.026 15.3405 110.463 14.9415C110.919 14.5235 111.499 14.3145 112.202 14.3145C112.905 14.3145 113.475 14.5235 113.912 14.9415C114.368 15.3405 114.596 15.8535 114.596 16.4805C114.596 17.1075 114.368 17.63 113.912 18.048C113.475 18.466 112.905 18.675 112.202 18.675ZM124.019 34.7775C123.012 34.7775 122.129 34.6255 121.369 34.3215C120.628 33.9985 120.048 33.476 119.63 32.754C119.212 32.013 119.003 31.006 119.003 29.733V23.805H116.581V20.6415H119.003L119.431 16.794H122.851V20.6415H126.613V23.805H122.851V29.79C122.851 30.436 122.993 30.892 123.278 31.158C123.563 31.405 124.048 31.5285 124.732 31.5285H126.527V34.7775H124.019ZM135.833 35.1195C134.37 35.1195 133.078 34.8155 131.957 34.2075C130.855 33.5995 129.99 32.7445 129.363 31.6425C128.736 30.5405 128.423 29.277 128.423 27.852C128.423 26.37 128.727 25.0685 129.335 23.9475C129.962 22.8075 130.826 21.9145 131.928 21.2685C133.049 20.6225 134.351 20.2995 135.833 20.2995C137.239 20.2995 138.474 20.6035 139.538 21.2115C140.621 21.8195 141.457 22.6555 142.046 23.7195C142.654 24.7645 142.958 25.952 142.958 27.282C142.958 27.472 142.958 27.6905 142.958 27.9375C142.958 28.1655 142.939 28.403 142.901 28.65H131.187V26.2845H139.082C139.025 25.4105 138.692 24.7075 138.084 24.1755C137.476 23.6435 136.726 23.3775 135.833 23.3775C135.168 23.3775 134.56 23.5295 134.009 23.8335C133.458 24.1185 133.021 24.565 132.698 25.173C132.375 25.762 132.213 26.503 132.213 27.396V28.2225C132.213 28.9825 132.365 29.6475 132.669 30.2175C132.973 30.7875 133.391 31.2245 133.923 31.5285C134.474 31.8325 135.092 31.9845 135.776 31.9845C136.479 31.9845 137.068 31.8325 137.543 31.5285C138.018 31.2055 138.379 30.797 138.626 30.303H142.559C142.293 31.196 141.837 32.013 141.191 32.754C140.564 33.476 139.794 34.0555 138.882 34.4925C137.97 34.9105 136.954 35.1195 135.833 35.1195ZM152.644 35.1195C151.181 35.1195 149.889 34.806 148.768 34.179C147.647 33.533 146.773 32.659 146.146 31.557C145.519 30.436 145.205 29.1535 145.205 27.7095C145.205 26.2655 145.519 24.9925 146.146 23.8905C146.792 22.7695 147.675 21.8955 148.796 21.2685C149.917 20.6225 151.2 20.2995 152.644 20.2995C154.468 20.2995 156.007 20.7745 157.261 21.7245C158.515 22.6745 159.313 23.9855 159.655 25.6575H155.579C155.408 24.9925 155.057 24.4795 154.525 24.1185C153.993 23.7575 153.356 23.577 152.615 23.577C151.969 23.577 151.38 23.7385 150.848 24.0615C150.316 24.3845 149.898 24.8595 149.594 25.4865C149.29 26.0945 149.138 26.8355 149.138 27.7095C149.138 28.3555 149.224 28.935 149.395 29.448C149.585 29.942 149.832 30.3695 150.136 30.7305C150.459 31.0915 150.829 31.367 151.247 31.557C151.665 31.747 152.121 31.842 152.615 31.842C153.109 31.842 153.556 31.766 153.955 31.614C154.354 31.443 154.696 31.2055 154.981 30.9015C155.266 30.5785 155.465 30.1985 155.579 29.7615H159.655C159.313 31.3955 158.515 32.697 157.261 33.666C156.007 34.635 154.468 35.1195 152.644 35.1195ZM168.801 34.7775C167.794 34.7775 166.91 34.6255 166.15 34.3215C165.409 33.9985 164.83 33.476 164.412 32.754C163.994 32.013 163.785 31.006 163.785 29.733V23.805H161.362V20.6415H163.785L164.212 16.794H167.632V20.6415H171.394V23.805H167.632V29.79C167.632 30.436 167.775 30.892 168.06 31.158C168.345 31.405 168.829 31.5285 169.513 31.5285H171.309V34.7775H168.801Z" fill="#FEFEFE"/>
</g>
<defs>
<clipPath id="clip0_4164_3554">
<rect width="173" height="43" fill="white"/>
</clipPath>
</defs>
</svg>
