<svg width="120" height="27" viewBox="0 0 120 27" fill="none" xmlns="http://www.w3.org/2000/svg">
<mask id="mask0_4164_3590" style="mask-type:luminance" maskUnits="userSpaceOnUse" x="0" y="0" width="120" height="27">
<path d="M120 0H0.888672V26.6667H120V0Z" fill="white"/>
</mask>
<g mask="url(#mask0_4164_3590)">
<mask id="mask1_4164_3590" style="mask-type:luminance" maskUnits="userSpaceOnUse" x="1" y="0" width="119" height="27">
<path d="M119.556 0H1.33398V26.6667H119.556V0Z" fill="white"/>
</mask>
<g mask="url(#mask1_4164_3590)">
<mask id="mask2_4164_3590" style="mask-type:luminance" maskUnits="userSpaceOnUse" x="1" y="0" width="118" height="26">
<path d="M118.89 0.883301H1.33398V25.6073H118.89V0.883301Z" fill="white"/>
</mask>
<g mask="url(#mask2_4164_3590)">
<path d="M10.2752 25.0493C7.86901 24.9694 6.05069 24.4246 4.82024 23.4143C3.5898 22.3774 2.70114 21.221 2.15428 19.945C1.60741 18.6423 1.33398 17.3263 1.33398 15.997C1.33398 14.6146 1.59374 13.2854 2.11326 12.0093C2.66013 10.7066 3.5488 9.55016 4.77925 8.53994C6.03702 7.50312 7.62293 6.97142 9.53696 6.94482H22.8257C24.7397 6.97142 26.3121 7.50312 27.5425 8.53994C28.8004 9.55016 29.689 10.7066 30.2085 12.0093C30.7552 13.2854 31.0288 14.6146 31.0288 15.997C31.0288 17.3263 30.7552 18.6423 30.2085 19.945C29.6616 21.221 28.7729 22.3774 27.5425 23.4143C26.3121 24.4246 24.4937 24.9694 22.0875 25.0493H10.2752ZM9.37289 12.2884C8.85336 12.2884 8.40221 12.5011 8.01941 12.9264C7.63661 13.3252 7.34949 13.8038 7.15812 14.3621C6.99402 14.8937 6.912 15.4254 6.912 15.9571C6.912 16.5155 6.99402 17.0737 7.15812 17.6319C7.34949 18.1637 7.63661 18.6423 8.01941 19.0677C8.40221 19.4665 8.85336 19.679 9.37289 19.7055H22.9898C23.5093 19.679 23.9605 19.4665 24.3433 19.0677C24.7261 18.6423 24.9996 18.1637 25.1636 17.6319C25.3552 17.0737 25.4506 16.5155 25.4506 15.9571C25.4506 15.4254 25.3552 14.8937 25.1636 14.3621C24.9996 13.8038 24.7261 13.3252 24.3433 12.9264C23.9605 12.5011 23.5093 12.2884 22.9898 12.2884H9.37289Z" fill="#FEFEFE"/>
<path d="M61.7886 9.25792C61.7886 9.92245 61.5151 10.4808 60.9682 10.9328C60.4489 11.3581 59.8063 11.5708 59.0407 11.5708H41.6913C41.3359 11.5708 41.0489 11.6372 40.8301 11.7702C40.6113 11.9031 40.4473 12.0493 40.3379 12.2089C40.2283 12.3417 40.1738 12.4614 40.1738 12.5677C40.1738 12.7006 40.2283 12.8469 40.3379 13.0064C40.4473 13.1393 40.6113 13.2722 40.8301 13.4051C41.0489 13.5115 41.3359 13.5779 41.6913 13.6045H55.1033C56.8258 13.6311 58.2478 13.9635 59.3689 14.6015C60.4897 15.2129 61.2827 15.944 61.7475 16.7947C62.2397 17.6189 62.4857 18.4563 62.4857 19.3069C62.4857 20.1312 62.2397 20.9685 61.7475 21.8193C61.2553 22.6435 60.4489 23.3745 59.3275 24.0125C58.2339 24.624 56.8258 24.9296 55.1033 24.9296C54.8023 24.9563 54.5838 24.9696 54.447 24.9696H38.5331C37.7677 24.9696 37.1113 24.7569 36.5643 24.3316C36.045 23.8796 35.7853 23.3345 35.7853 22.6967C35.7853 22.0319 36.0585 21.4736 36.6054 21.0216C37.125 20.5963 37.7677 20.3837 38.5331 20.3837H55.4313C55.8415 20.4103 56.1695 20.3571 56.4155 20.2243C56.689 20.0913 56.8942 19.9451 57.031 19.7856C57.1678 19.626 57.2359 19.4665 57.2359 19.3069C57.2359 19.2273 57.1678 19.0943 57.031 18.9083C56.8942 18.6956 56.689 18.536 56.4155 18.4296C56.1695 18.2968 55.8415 18.2171 55.4313 18.1904H41.9786C40.3925 18.1639 39.0802 17.8448 38.0411 17.2333C37.0021 16.5953 36.2638 15.8643 35.8262 15.04C35.3887 14.216 35.1699 13.3919 35.1699 12.5677C35.1699 11.7436 35.3887 10.9328 35.8262 10.1352C36.2913 9.31108 37.0294 8.60654 38.0411 8.02169C39.0802 7.41022 40.3925 7.0779 41.9786 7.02473C42.2517 6.99817 42.457 6.98486 42.5938 6.98486H59.0407C59.8063 6.98486 60.4489 7.21084 60.9682 7.66277C61.5151 8.08813 61.7886 8.61984 61.7886 9.25792Z" fill="#FEFEFE"/>
<path d="M69.8691 0.883301C70.6075 0.909885 71.2363 1.17573 71.7557 1.68085C72.2755 2.15939 72.5489 2.75755 72.5763 3.47535V23.0153C72.4121 24.6104 71.5097 25.4744 69.8691 25.6073C69.1035 25.6073 68.4336 25.368 67.8595 24.8896C67.3125 24.3845 67.0391 23.7597 67.0391 23.0153V3.47535C67.0664 2.73096 67.3536 2.11951 67.9005 1.64097C68.4472 1.13586 69.1035 0.883301 69.8691 0.883301Z" fill="#FEFEFE"/>
<path d="M86.2752 25.0493C83.8691 24.9694 82.0508 24.4246 80.8204 23.4143C79.5899 22.3774 78.7011 21.221 78.1544 19.945C77.6075 18.6423 77.334 17.3263 77.334 15.997C77.334 14.6146 77.5939 13.2854 78.1133 12.0093C78.6603 10.7066 79.5489 9.55016 80.7793 8.53994C82.0372 7.50312 83.6228 6.97142 85.537 6.94482H98.8256C100.74 6.97142 102.313 7.50312 103.543 8.53994C104.801 9.55016 105.689 10.7066 106.209 12.0093C106.755 13.2854 107.029 14.6146 107.029 15.997C107.029 17.3263 106.755 18.6423 106.209 19.945C105.662 21.221 104.773 22.3774 103.543 23.4143C102.313 24.4246 100.494 24.9694 98.0877 25.0493H86.2752ZM85.373 12.2884C84.8536 12.2884 84.4021 12.5011 84.0195 12.9264C83.6365 13.3252 83.3497 13.8038 83.1581 14.3621C82.994 14.8937 82.912 15.4254 82.912 15.9571C82.912 16.5155 82.994 17.0737 83.1581 17.6319C83.3497 18.1637 83.6365 18.6423 84.0195 19.0677C84.4021 19.4665 84.8536 19.679 85.373 19.7055H98.99C99.509 19.679 99.9606 19.4665 100.343 19.0677C100.726 18.6423 101 18.1637 101.163 17.6319C101.355 17.0737 101.45 16.5155 101.45 15.9571C101.45 15.4254 101.355 14.8937 101.163 14.3621C101 13.8038 100.726 13.3252 100.343 12.9264C99.9606 12.5011 99.509 12.2884 98.99 12.2884H85.373Z" fill="#FEFEFE"/>
<path d="M115.834 25.6079C117.456 25.6079 118.77 24.29 118.77 22.6647C118.77 21.0389 117.456 19.7212 115.834 19.7212C114.213 19.7212 112.898 21.0389 112.898 22.6647C112.898 24.29 114.213 25.6079 115.834 25.6079Z" fill="#FEFEFE"/>
</g>
</g>
</g>
</svg>
