<svg width="147" height="40" viewBox="0 0 147 40" fill="none" xmlns="http://www.w3.org/2000/svg">
<g clip-path="url(#clip0_4164_3545)">
<path d="M48.2441 28.9813V9.03132H56.4236C57.8106 9.03132 58.9791 9.24982 59.9291 9.68682C60.8791 10.1238 61.5916 10.7318 62.0666 11.5108C62.5606 12.2708 62.8076 13.1543 62.8076 14.1613C62.8076 15.1683 62.5891 16.0138 62.1521 16.6978C61.7151 17.3818 61.1356 17.9138 60.4136 18.2938C59.7106 18.6548 58.9316 18.8638 58.0766 18.9208L58.5326 18.6073C59.4446 18.6453 60.2521 18.8923 60.9551 19.3483C61.6771 19.7853 62.2376 20.3743 62.6366 21.1153C63.0546 21.8563 63.2636 22.6638 63.2636 23.5378C63.2636 24.6018 63.0071 25.5423 62.4941 26.3593C61.9811 27.1763 61.2401 27.8223 60.2711 28.2973C59.3021 28.7533 58.1146 28.9813 56.7086 28.9813H48.2441ZM52.0916 25.8463H56.0816C57.1266 25.8463 57.9341 25.6088 58.5041 25.1338C59.0741 24.6588 59.3591 23.9748 59.3591 23.0818C59.3591 22.1888 59.0646 21.4953 58.4756 21.0013C57.8866 20.4883 57.0696 20.2318 56.0246 20.2318H52.0916V25.8463ZM52.0916 17.3533H55.7966C56.8036 17.3533 57.5731 17.1253 58.1051 16.6693C58.6371 16.2133 58.9031 15.5673 58.9031 14.7313C58.9031 13.9143 58.6371 13.2778 58.1051 12.8218C57.5731 12.3468 56.7941 12.1093 55.7681 12.1093H52.0916V17.3533ZM66.0274 28.9813V8.63232H69.8749V28.9813H66.0274ZM80.0467 29.3233C78.6787 29.3233 77.4437 29.0098 76.3417 28.3828C75.2587 27.7558 74.3942 26.8818 73.7482 25.7608C73.1022 24.6398 72.7792 23.3573 72.7792 21.9133C72.7792 20.4503 73.1022 19.1678 73.7482 18.0658C74.3942 16.9448 75.2682 16.0708 76.3702 15.4438C77.4722 14.8168 78.6977 14.5033 80.0467 14.5033C81.4337 14.5033 82.6687 14.8168 83.7517 15.4438C84.8537 16.0708 85.7182 16.9448 86.3452 18.0658C86.9912 19.1678 87.3142 20.4503 87.3142 21.9133C87.3142 23.3763 86.9912 24.6683 86.3452 25.7893C85.7182 26.8913 84.8537 27.7558 83.7517 28.3828C82.6497 29.0098 81.4147 29.3233 80.0467 29.3233ZM80.0467 26.0173C80.6547 26.0173 81.2057 25.8653 81.6997 25.5613C82.2127 25.2573 82.6212 24.8013 82.9252 24.1933C83.2482 23.5853 83.4097 22.8253 83.4097 21.9133C83.4097 21.0013 83.2577 20.2413 82.9537 19.6333C82.6497 19.0253 82.2412 18.5693 81.7282 18.2653C81.2342 17.9613 80.6832 17.8093 80.0752 17.8093C79.4672 17.8093 78.9067 17.9613 78.3937 18.2653C77.8807 18.5693 77.4722 19.0253 77.1682 19.6333C76.8642 20.2413 76.7122 21.0013 76.7122 21.9133C76.7122 22.8253 76.8642 23.5853 77.1682 24.1933C77.4722 24.8013 77.8807 25.2573 78.3937 25.5613C78.9067 25.8653 79.4577 26.0173 80.0467 26.0173ZM97.1675 29.3233C95.7045 29.3233 94.4125 29.0098 93.2915 28.3828C92.1705 27.7368 91.2965 26.8628 90.6695 25.7608C90.0425 24.6398 89.729 23.3573 89.729 21.9133C89.729 20.4693 90.0425 19.1963 90.6695 18.0943C91.3155 16.9733 92.199 16.0993 93.32 15.4723C94.441 14.8263 95.7235 14.5033 97.1675 14.5033C98.9915 14.5033 100.531 14.9783 101.785 15.9283C103.039 16.8783 103.837 18.1893 104.179 19.8613H100.103C99.932 19.1963 99.5805 18.6833 99.0485 18.3223C98.5165 17.9613 97.88 17.7808 97.139 17.7808C96.493 17.7808 95.904 17.9423 95.372 18.2653C94.84 18.5883 94.422 19.0633 94.118 19.6903C93.814 20.2983 93.662 21.0393 93.662 21.9133C93.662 22.5593 93.7475 23.1388 93.9185 23.6518C94.1085 24.1458 94.3555 24.5733 94.6595 24.9343C94.9825 25.2953 95.353 25.5708 95.771 25.7608C96.189 25.9508 96.645 26.0458 97.139 26.0458C97.633 26.0458 98.0795 25.9698 98.4785 25.8178C98.8775 25.6468 99.2195 25.4093 99.5045 25.1053C99.7895 24.7823 99.989 24.4023 100.103 23.9653H104.179C103.837 25.5993 103.039 26.9008 101.785 27.8698C100.531 28.8388 98.9915 29.3233 97.1675 29.3233ZM116.514 28.9813L110.33 21.2008L115.802 14.8453H120.362L113.294 22.7968V19.7473L121.302 28.9813H116.514ZM107.052 28.9813V8.63232H110.9V28.9813H107.052ZM123.306 28.9813V8.63232H127.154V28.9813H123.306ZM132.452 35.0803L135.9 27.3853H135.074L129.288 14.8453H133.478L137.61 23.9368H137.639L141.315 14.8453H145.419L136.527 35.0803H132.452Z" fill="#FEFEFE"/>
<mask id="mask0_4164_3545" style="mask-type:alpha" maskUnits="userSpaceOnUse" x="0" y="0" width="37" height="40">
<path d="M14.5884 0.914832C16.7011 -0.304943 19.3041 -0.304945 21.4168 0.91483L32.5911 7.36628C34.7038 8.58605 36.0053 10.8403 36.0053 13.2798V26.1827C36.0053 28.6223 34.7038 30.8765 32.5911 32.0963L21.4168 38.5478C19.3041 39.7675 16.7012 39.7675 14.5884 38.5478L3.4142 32.0963C1.30149 30.8765 0 28.6223 0 26.1827V13.2798C0 10.8403 1.30148 8.58606 3.4142 7.36628L14.5884 0.914832Z" fill="#C4C4C4"/>
</mask>
<g mask="url(#mask0_4164_3545)">
<path d="M37.7335 9.99813L18 -1.39502L-1.73351 9.99813L18 21.3913L37.7335 9.99813Z" fill="#FEFEFE"/>
<path d="M18.0052 20.6468L-0.152344 10.1636L-0.152344 31.1301L18.0052 41.6133L18.0052 20.6468Z" fill="#FEFEFE"/>
<path d="M36.1575 10.1652L18 20.6484L18 41.6149L36.1575 31.1317L36.1575 10.1652Z" fill="#FEFEFE"/>
</g>
</g>
<defs>
<clipPath id="clip0_4164_3545">
<rect width="147" height="40" fill="white"/>
</clipPath>
</defs>
</svg>
