<svg preserveAspectRatio="none" width="100%" height="100%" overflow="visible" style="display: block;" viewBox="0 0 101 25" fill="none" xmlns="http://www.w3.org/2000/svg">
<g id="logo-brand-02" clip-path="url(#clip0_3873_17700)">
<path id="Vector" d="M0 7.49535C0 7.18866 0.163459 6.90494 0.429373 6.75017L10.7233 0.758948C11.3011 0.422672 12.0273 0.837669 12.0273 1.50412V10.5323L6.07751 7.00012V24.5312H0.866685C0.388029 24.5312 0 24.1448 0 23.6681V7.49535Z" fill="var(--fill-0, #0F0F0F)"/>
<path id="Vector_2" d="M12.0275 10.5435L17.6381 13.9717C17.895 14.1287 18.0515 14.4073 18.0515 14.7074V23.6684C18.0515 24.1451 17.6635 24.5315 17.1848 24.5315H12.8942C12.4155 24.5315 12.0275 24.1451 12.0275 23.6684V10.5435Z" fill="var(--fill-0, #0F0F0F)"/>
<path id="Vector_3" d="M25.7798 20.2195L29.8729 8.6207H32.7347L36.8279 20.2195H34.4485L31.3038 10.8245H31.2872L28.1258 20.2195H25.7798ZM27.6599 17.3861L28.2589 15.6463H34.1823L34.7647 17.3861H27.6599ZM38.0798 20.2195V12.0009H40.0432L40.2595 13.6082H40.2761C40.4869 13.1995 40.7365 12.8626 41.0249 12.5974C41.3244 12.3213 41.6627 12.1224 42.0398 12.0009C42.417 11.8684 42.8385 11.8021 43.3044 11.8021V14.1716H42.6887C42.3338 14.1716 42.0065 14.2102 41.707 14.2876C41.4186 14.3649 41.1691 14.4919 40.9583 14.6687C40.7586 14.8454 40.6033 15.0884 40.4924 15.3977C40.3815 15.696 40.326 16.0716 40.326 16.5245V20.2195H38.0798ZM48.4932 20.4184C47.6391 20.4184 46.8848 20.2361 46.2304 19.8716C45.5759 19.496 45.0657 18.9878 44.6996 18.3472C44.3336 17.6954 44.1505 16.9498 44.1505 16.1102C44.1505 15.2707 44.3336 14.5306 44.6996 13.8899C45.0768 13.2381 45.5926 12.73 46.247 12.3655C46.9015 11.9899 47.6502 11.8021 48.4932 11.8021C49.5581 11.8021 50.4566 12.0783 51.1887 12.6306C51.9208 13.1829 52.3867 13.9451 52.5864 14.9172H50.207C50.1072 14.5306 49.902 14.2323 49.5914 14.0224C49.2808 13.8126 48.9092 13.7076 48.4766 13.7076C48.0995 13.7076 47.7556 13.8015 47.445 13.9893C47.1344 14.1771 46.8904 14.4533 46.7129 14.8178C46.5354 15.1713 46.4467 15.6021 46.4467 16.1102C46.4467 16.4858 46.4966 16.8227 46.5964 17.121C46.7074 17.4082 46.8516 17.6567 47.029 17.8666C47.2176 18.0765 47.4339 18.2367 47.678 18.3472C47.922 18.4576 48.1882 18.5128 48.4766 18.5128C48.765 18.5128 49.0257 18.4687 49.2586 18.3803C49.4916 18.2809 49.6912 18.1428 49.8576 17.966C50.024 17.7783 50.1405 17.5573 50.207 17.3033H52.5864C52.3867 18.2533 51.9208 19.0099 51.1887 19.5733C50.4566 20.1367 49.5581 20.4184 48.4932 20.4184ZM54.2639 20.2195V8.38872H56.5101V13.2768H56.5268C56.8041 12.8128 57.1757 12.4538 57.6416 12.1998C58.1075 11.9347 58.6512 11.8021 59.2724 11.8021C59.949 11.8021 60.52 11.9512 60.9859 12.2495C61.4629 12.5367 61.8237 12.962 62.0677 13.5253C62.3228 14.0887 62.4501 14.7847 62.4501 15.6131V20.2195H60.2205V15.812C60.2205 15.1271 60.0822 14.6024 59.8048 14.2378C59.5386 13.8733 59.106 13.691 58.507 13.691C58.1296 13.691 57.7858 13.7849 57.4752 13.9727C57.1757 14.1495 56.9372 14.4091 56.7597 14.7515C56.5933 15.0829 56.5101 15.4916 56.5101 15.9777V20.2195H54.2639ZM64.3732 20.2195V12.0009H66.6191V20.2195H64.3732ZM65.5046 10.8576C65.0942 10.8576 64.7556 10.7361 64.4894 10.4931C64.2342 10.2501 64.107 9.94628 64.107 9.58174C64.107 9.21721 64.2342 8.91895 64.4894 8.68698C64.7556 8.44395 65.0942 8.32244 65.5046 8.32244C65.915 8.32244 66.2478 8.44395 66.5029 8.68698C66.7692 8.91895 66.9023 9.21721 66.9023 9.58174C66.9023 9.94628 66.7692 10.2501 66.5029 10.4931C66.2478 10.7361 65.915 10.8576 65.5046 10.8576ZM72.4036 20.2195C71.8157 20.2195 71.3002 20.1312 70.8565 19.9544C70.4239 19.7666 70.0852 19.4628 69.8412 19.0431C69.5972 18.6123 69.4752 18.0268 69.4752 17.2867V13.8402H68.0612V12.0009H69.4752L69.725 9.76401H71.7217V12.0009H73.918V13.8402H71.7217V17.3198C71.7217 17.6954 71.8046 17.9605 71.971 18.1152C72.1373 18.2588 72.4205 18.3306 72.8198 18.3306H73.8678V20.2195H72.4036ZM79.3008 20.4184C78.4466 20.4184 77.6923 20.2416 77.0379 19.8881C76.3945 19.5347 75.8895 19.0376 75.5235 18.3969C75.1574 17.7562 74.9747 17.0216 74.9747 16.1931C74.9747 15.3315 75.1522 14.5748 75.5071 13.923C75.8732 13.2602 76.3776 12.741 77.021 12.3655C77.6754 11.9899 78.4355 11.8021 79.3008 11.8021C80.1216 11.8021 80.8426 11.9788 81.4638 12.3323C82.0961 12.6858 82.5841 13.1719 82.928 13.7905C83.283 14.398 83.4604 15.0884 83.4604 15.8617C83.4604 15.9722 83.4604 16.0992 83.4604 16.2428C83.4604 16.3753 83.4493 16.5134 83.4272 16.657H76.5884V15.2817H81.1976C81.1643 14.7736 80.9699 14.3649 80.6149 14.0556C80.26 13.7463 79.8221 13.5916 79.3008 13.5916C78.9125 13.5916 78.5576 13.68 78.2359 13.8567C77.9142 14.0224 77.6591 14.282 77.4705 14.6355C77.2819 14.978 77.1874 15.4088 77.1874 15.928V16.4085C77.1874 16.8503 77.2761 17.237 77.4536 17.5684C77.631 17.8998 77.8751 18.1538 78.1857 18.3306C78.5074 18.5073 78.8682 18.5957 79.2675 18.5957C79.6779 18.5957 80.0218 18.5073 80.2991 18.3306C80.5764 18.1428 80.7872 17.9053 80.9314 17.6181H83.2275C83.0722 18.1373 82.806 18.6123 82.4288 19.0431C82.0628 19.4628 81.6132 19.7998 81.0808 20.0538C80.5484 20.2969 79.9552 20.4184 79.3008 20.4184ZM89.1153 20.4184C88.2612 20.4184 87.5069 20.2361 86.8524 19.8716C86.1979 19.496 85.6877 18.9878 85.3216 18.3472C84.9556 17.6954 84.7723 16.9498 84.7723 16.1102C84.7723 15.2707 84.9556 14.5306 85.3216 13.8899C85.6988 13.2381 86.2143 12.73 86.8688 12.3655C87.5232 11.9899 88.2722 11.8021 89.1153 11.8021C90.1802 11.8021 91.0786 12.0783 91.8107 12.6306C92.5428 13.1829 93.0087 13.9451 93.2084 14.9172H90.8288C90.7289 14.5306 90.524 14.2323 90.2134 14.0224C89.9028 13.8126 89.5309 13.7076 89.0983 13.7076C88.7212 13.7076 88.3773 13.8015 88.0667 13.9893C87.7562 14.1771 87.5121 14.4533 87.3346 14.8178C87.1572 15.1713 87.0684 15.6021 87.0684 16.1102C87.0684 16.4858 87.1186 16.8227 87.2185 17.121C87.3294 17.4082 87.4736 17.6567 87.6511 17.8666C87.8396 18.0765 88.0557 18.2367 88.2997 18.3472C88.5437 18.4576 88.8099 18.5128 89.0983 18.5128C89.3867 18.5128 89.6477 18.4687 89.8807 18.3803C90.1136 18.2809 90.3133 18.1428 90.4796 17.966C90.646 17.7783 90.7622 17.5573 90.8288 17.3033H93.2084C93.0087 18.2533 92.5428 19.0099 91.8107 19.5733C91.0786 20.1367 90.1802 20.4184 89.1153 20.4184ZM98.548 20.2195C97.9601 20.2195 97.444 20.1312 97.0003 19.9544C96.5677 19.7666 96.2296 19.4628 95.9856 19.0431C95.7416 18.6123 95.6196 18.0268 95.6196 17.2867V13.8402H94.205V12.0009H95.6196L95.8688 9.76401H97.8655V12.0009H100.062V13.8402H97.8655V17.3198C97.8655 17.6954 97.949 17.9605 98.1154 18.1152C98.2818 18.2588 98.5643 18.3306 98.9636 18.3306H100.012V20.2195H98.548Z" fill="var(--fill-0, #0F0F0F)"/>
</g>
<defs>
<clipPath id="clip0_3873_17700">
<rect width="101" height="25" fill="white"/>
</clipPath>
</defs>
</svg>
