<svg preserveAspectRatio="none" width="100%" height="100%" overflow="visible" style="display: block;" viewBox="0 0 119 25" fill="none" xmlns="http://www.w3.org/2000/svg">
<g id="logo-brand-04" clip-path="url(#clip0_3873_17708)">
<path id="Vector" d="M25.3219 19.5018H9.60309V24.321H25.3219V19.5018Z" fill="var(--fill-0, #0F0F0F)"/>
<path id="Vector_2" d="M9.60451 24.3209C14.9089 24.3209 19.209 20.0104 19.209 14.6933C19.209 9.37613 14.9089 5.06571 9.60451 5.06571C4.30009 5.06571 0 9.37613 0 14.6933C0 20.0104 4.30009 24.3209 9.60451 24.3209Z" fill="var(--fill-0, #0F0F0F)"/>
<path id="Vector_3" d="M24.5151 24.3209C31.215 24.3209 36.6464 18.8764 36.6464 12.1604C36.6464 5.44441 31.215 0 24.5151 0C17.8151 0 12.3838 5.44441 12.3838 12.1604C12.3838 18.8764 17.8151 24.3209 24.5151 24.3209Z" fill="var(--fill-0, #0F0F0F)"/>
<path id="Vector_4" d="M51.8853 19.2796C50.4637 19.2796 49.2317 18.9742 48.1892 18.3635C47.1602 17.7392 46.3682 16.8774 45.8131 15.7781C45.258 14.6653 44.9804 13.3828 44.9804 11.9306C44.9804 10.4785 45.258 9.196 45.8131 8.08314C46.3682 6.97029 47.1602 6.10172 48.1892 5.47744C49.2317 4.85315 50.4637 4.54101 51.8853 4.54101C53.6183 4.54101 55.0331 4.96851 56.1297 5.82351C57.2399 6.67851 57.9304 7.88636 58.2012 9.44707H55.1752C54.9992 8.68707 54.6337 8.09671 54.0786 7.676C53.5235 7.24171 52.7856 7.02458 51.865 7.02458C51.012 7.02458 50.2742 7.22814 49.6514 7.63529C49.0421 8.02886 48.575 8.59207 48.2501 9.32493C47.9387 10.0578 47.783 10.9264 47.783 11.9306C47.783 12.9349 47.9387 13.8035 48.2501 14.5364C48.575 15.2692 49.0421 15.8324 49.6514 16.226C50.2742 16.606 51.012 16.796 51.865 16.796C52.7856 16.796 53.5235 16.5992 54.0786 16.2056C54.6337 15.8121 54.9992 15.2556 55.1752 14.5364H58.2012C57.9304 16.0156 57.2399 17.176 56.1297 18.0174C55.0331 18.8589 53.6183 19.2796 51.8853 19.2796ZM60.2396 19.0353V4.50029H62.9812V19.0353H60.2396ZM70.2295 19.2796C69.2546 19.2796 68.3746 19.0556 67.5894 18.6078C66.8176 18.1599 66.2016 17.5356 65.7413 16.7349C65.281 15.9342 65.0508 15.0181 65.0508 13.9867C65.0508 12.9417 65.281 12.0256 65.7413 11.2385C66.2016 10.4378 66.8244 9.8135 67.6097 9.36564C68.3949 8.91779 69.2682 8.69386 70.2295 8.69386C71.2178 8.69386 72.0976 8.91779 72.8693 9.36564C73.6546 9.8135 74.271 10.4378 74.7177 11.2385C75.1781 12.0256 75.4082 12.9417 75.4082 13.9867C75.4082 15.0317 75.1781 15.9546 74.7177 16.7553C74.271 17.5424 73.6546 18.1599 72.8693 18.6078C72.0841 19.0556 71.2043 19.2796 70.2295 19.2796ZM70.2295 16.9181C70.6627 16.9181 71.0553 16.8096 71.4071 16.5924C71.7727 16.3753 72.0641 16.0496 72.2807 15.6153C72.5109 15.181 72.6256 14.6381 72.6256 13.9867C72.6256 13.3353 72.5173 12.7924 72.3007 12.3581C72.0841 11.9239 71.7933 11.5981 71.4278 11.381C71.0756 11.1639 70.683 11.0553 70.2498 11.0553C69.8165 11.0553 69.4171 11.1639 69.0516 11.381C68.686 11.5981 68.3949 11.9239 68.1783 12.3581C67.9617 12.7924 67.8534 13.3353 67.8534 13.9867C67.8534 14.6381 67.9617 15.181 68.1783 15.6153C68.3949 16.0496 68.686 16.3753 69.0516 16.5924C69.4171 16.8096 69.8097 16.9181 70.2295 16.9181ZM81.2307 19.2796C80.4048 19.2796 79.6944 19.1031 79.0987 18.7503C78.5165 18.3974 78.0697 17.8749 77.7583 17.1828C77.4604 16.4771 77.3115 15.6153 77.3115 14.5974V8.93814H80.0328V14.3531C80.0328 15.1946 80.2017 15.8392 80.5402 16.2871C80.8787 16.7349 81.4138 16.9589 82.1449 16.9589C82.6188 16.9589 83.0314 16.8503 83.3834 16.6331C83.7489 16.4024 84.0332 16.0835 84.2363 15.6764C84.4529 15.2556 84.5613 14.7467 84.5613 14.1496V8.93814H87.3032V19.0353H84.9069L84.6831 17.366H84.6632C84.3518 17.9496 83.905 18.4178 83.3228 18.7706C82.7406 19.1099 82.043 19.2796 81.2307 19.2796ZM94.2003 19.2796C93.2525 19.2796 92.4131 19.0489 91.682 18.5874C90.9509 18.126 90.3687 17.4949 89.9355 16.6942C89.5158 15.8935 89.3056 14.9842 89.3056 13.9664C89.3056 12.9485 89.5158 12.046 89.9355 11.2589C90.3687 10.4581 90.9509 9.83386 91.682 9.386C92.4267 8.92457 93.2725 8.69386 94.2202 8.69386C94.9784 8.69386 95.6418 8.83636 96.2104 9.12136C96.7791 9.40636 97.233 9.78636 97.5714 10.2614V4.50029H100.313V19.0353H97.9163L97.6527 17.5289H97.632C97.4019 17.8546 97.1247 18.1531 96.7997 18.4246C96.4883 18.6824 96.1157 18.886 95.6824 19.0353C95.2492 19.1981 94.7554 19.2796 94.2003 19.2796ZM94.8701 16.9181C95.4116 16.9181 95.8855 16.796 96.2917 16.5517C96.7114 16.2939 97.0363 15.9478 97.2665 15.5135C97.5102 15.0656 97.632 14.5567 97.632 13.9867C97.632 13.4031 97.5102 12.8942 97.2665 12.4599C97.0363 12.0121 96.7114 11.666 96.2917 11.4217C95.8855 11.1639 95.4052 11.0349 94.8501 11.0349C94.3221 11.0349 93.8482 11.1639 93.4285 11.4217C93.0088 11.666 92.6839 12.0121 92.4537 12.4599C92.2236 12.9078 92.1081 13.4099 92.1081 13.9664C92.1081 14.5499 92.2236 15.0656 92.4537 15.5135C92.6839 15.9478 93.0088 16.2939 93.4285 16.5517C93.8482 16.796 94.3285 16.9181 94.8701 16.9181ZM102.721 19.0353V4.50029H105.463V19.0353H102.721ZM109.238 23.3917L111.695 17.8953H111.106L106.983 8.93814H109.969L112.913 15.4321H112.934L115.553 8.93814H118.478L112.141 23.3917H109.238Z" fill="var(--fill-0, #0F0F0F)"/>
</g>
<defs>
<clipPath id="clip0_3873_17708">
<rect width="119" height="25" fill="white"/>
</clipPath>
</defs>
</svg>
