<svg preserveAspectRatio="none" width="100%" height="100%" overflow="visible" style="display: block;" viewBox="0 0 86 25" fill="none" xmlns="http://www.w3.org/2000/svg">
<g id="logo-brand-03">
<path id="Vector" d="M32.5789 17.4755V8.51622H29.4773V6.86383H37.7078V8.51622H34.6062V17.4755H32.5789ZM41.3235 17.6574C40.5468 17.6574 39.8609 17.4957 39.2658 17.1723C38.6808 16.8489 38.2219 16.3941 37.889 15.808C37.5562 15.2218 37.3898 14.5497 37.3898 13.7918C37.3898 13.0035 37.5512 12.3112 37.8739 11.7149C38.2068 11.1085 38.6657 10.6335 39.2507 10.2899C39.8458 9.94628 40.5367 9.77447 41.3235 9.77447C42.0699 9.77447 42.7255 9.93617 43.2903 10.2596C43.8653 10.583 44.3091 11.0277 44.6217 11.5936C44.9445 12.1495 45.1059 12.7811 45.1059 13.4886C45.1059 13.5896 45.1059 13.7059 45.1059 13.8372C45.1059 13.9585 45.0958 14.0848 45.0756 14.2162H38.8573V12.958H43.0483C43.018 12.4931 42.8415 12.1191 42.5187 11.8362C42.196 11.5532 41.7975 11.4117 41.3235 11.4117C40.9705 11.4117 40.6477 11.4926 40.3552 11.6543C40.0627 11.8059 39.8307 12.0434 39.6592 12.3668C39.4877 12.6801 39.402 13.0742 39.402 13.5492V13.9888C39.402 14.3931 39.4827 14.7468 39.6441 15.05C39.8055 15.3532 40.0274 15.5856 40.3098 15.7473C40.6023 15.909 40.9301 15.9899 41.2932 15.9899C41.6664 15.9899 41.9791 15.909 42.2313 15.7473C42.4834 15.5755 42.6751 15.3582 42.8062 15.0955H44.8941C44.7529 15.5705 44.5108 16.0051 44.1678 16.3992C43.835 16.7832 43.4265 17.0915 42.9423 17.3239C42.4582 17.5463 41.9186 17.6574 41.3235 17.6574ZM50.2479 17.6574C49.4713 17.6574 48.7854 17.4907 48.1903 17.1572C47.5952 16.8136 47.1312 16.3487 46.7984 15.7625C46.4655 15.1662 46.2991 14.484 46.2991 13.716C46.2991 12.9479 46.4655 12.2707 46.7984 11.6846C47.1413 11.0883 47.6103 10.6234 48.2054 10.2899C48.8005 9.94628 49.4814 9.77447 50.2479 9.77447C51.2162 9.77447 52.0332 10.0271 52.6989 10.5324C53.3646 11.0378 53.7882 11.7351 53.9698 12.6245H51.8063C51.7155 12.2707 51.5289 11.9979 51.2465 11.8059C50.9641 11.6138 50.6262 11.5178 50.2328 11.5178C49.8899 11.5178 49.5772 11.6037 49.2948 11.7755C49.0124 11.9473 48.7905 12.2 48.6291 12.5335C48.4677 12.8569 48.387 13.2511 48.387 13.716C48.387 14.0596 48.4324 14.3678 48.5232 14.6407C48.624 14.9035 48.7552 15.1309 48.9165 15.3229C49.088 15.5149 49.2847 15.6614 49.5066 15.7625C49.7285 15.8636 49.9706 15.9141 50.2328 15.9141C50.4951 15.9141 50.7321 15.8737 50.9439 15.7928C51.1557 15.7019 51.3373 15.5755 51.4886 15.4138C51.6399 15.242 51.7458 15.0399 51.8063 14.8074H53.9698C53.7882 15.6766 53.3646 16.3689 52.6989 16.8843C52.0332 17.3997 51.2162 17.6574 50.2479 17.6574ZM55.4949 17.4755V6.6516H57.5377V11.1237H57.5526C57.8047 10.6992 58.1429 10.3707 58.5665 10.1383C58.9902 9.89574 59.4844 9.77447 60.0492 9.77447C60.6645 9.77447 61.1837 9.9109 61.6073 10.1838C62.041 10.4465 62.3691 10.8356 62.591 11.3511C62.823 11.8665 62.9387 12.5032 62.9387 13.2612V17.4755H60.9114V13.4431C60.9114 12.8165 60.7855 12.3364 60.5334 12.0029C60.2913 11.6694 59.8979 11.5027 59.3533 11.5027C59.0103 11.5027 58.6977 11.5886 58.4152 11.7604C58.1429 11.9221 57.9258 12.1596 57.7644 12.4729C57.6131 12.7761 57.5377 13.15 57.5377 13.5947V17.4755H55.4949ZM64.5966 17.4755V6.6516H66.6388V17.4755H64.5966ZM68.5287 17.4755V9.95638H70.5715V17.4755H68.5287ZM69.5575 8.91037C69.1843 8.91037 68.877 8.7992 68.6349 8.57686C68.4029 8.35452 68.2866 8.0766 68.2866 7.74309C68.2866 7.40957 68.4029 7.1367 68.6349 6.92447C68.877 6.70213 69.1843 6.59096 69.5575 6.59096C69.9307 6.59096 70.2333 6.70213 70.4653 6.92447C70.7074 7.1367 70.8284 7.40957 70.8284 7.74309C70.8284 8.0766 70.7074 8.35452 70.4653 8.57686C70.2333 8.7992 69.9307 8.91037 69.5575 8.91037ZM72.8202 17.4755V9.22872C72.8202 8.60213 72.9264 8.10186 73.1382 7.72793C73.3601 7.34388 73.6675 7.07101 74.0609 6.90931C74.4542 6.7375 74.9182 6.6516 75.4528 6.6516H76.2852V8.37979H75.7554C75.4427 8.37979 75.216 8.44548 75.0748 8.57686C74.9336 8.69814 74.863 8.91543 74.863 9.22872V17.4755H72.8202ZM71.8068 11.6391V9.95638H76.4365V11.6391H71.8068ZM78.7898 20.7197L80.6202 16.6266H80.1817L77.1101 9.95638H79.3345L81.528 14.7923H81.5434L83.4949 9.95638H85.6735L80.9531 20.7197H78.7898Z" fill="var(--fill-0, #0F0F0F)"/>
<path id="Vector_2" opacity="0.6" d="M12.9647 3.5162C12.9647 2.32999 14.4044 1.74537 15.2286 2.59689L22.823 10.4431C23.3231 10.9598 23.6028 11.6514 23.6028 12.3712V21.4531C23.6028 22.6393 22.1631 23.2239 21.3389 22.3724L13.7446 14.5262C13.2444 14.0095 12.9647 13.3179 12.9647 12.5981V3.5162Z" fill="var(--fill-0, #0F0F0F)"/>
<path id="Vector_3" opacity="0.8" d="M6.37037 3.25829C6.37037 2.07209 7.81007 1.48747 8.63429 2.33899L16.1166 10.0694C16.6886 10.6604 17.0085 11.4513 17.0085 12.2746V21.1952C17.0085 22.3814 15.5688 22.966 14.7446 22.1145L7.15021 14.2683C6.65008 13.7516 6.37037 13.06 6.37037 12.3402V3.25829Z" fill="var(--fill-0, #0F0F0F)"/>
<path id="Vector_4" d="M0 3.5162C0 2.32999 1.43972 1.74537 2.26391 2.59689L9.85825 10.4431C10.3584 10.9598 10.6381 11.6514 10.6381 12.3712V21.4531C10.6381 22.6393 9.19839 23.2239 8.37422 22.3724L0.779866 14.5262C0.279711 14.0095 0 13.3179 0 12.5981V3.5162Z" fill="var(--fill-0, #0F0F0F)"/>
</g>
</svg>
