<svg width="98" height="30" viewBox="0 0 98 30" fill="none" xmlns="http://www.w3.org/2000/svg">
<path opacity="0.2" d="M0 8.14914L13.6429 16.2697V30L0 21.8059V8.14914Z" fill="#0F0F0F"/>
<path opacity="0.4" d="M27.2378 8.15735L13.5953 16.2694V29.9853L27.2378 21.7998V8.15735Z" fill="#0F0F0F"/>
<path opacity="0.6" d="M0 8.19408L13.6429 0L27.2857 8.19408V8.25536L13.6429 16.4494L0 8.25536V8.19408Z" fill="#0F0F0F"/>
<path d="M40.6936 24.288C39.0616 24.288 37.6216 23.92 36.3736 23.184C35.1256 22.448 34.1496 21.432 33.4456 20.136C32.7416 18.824 32.3896 17.312 32.3896 15.6C32.3896 13.888 32.7416 12.384 33.4456 11.088C34.1496 9.776 35.1256 8.752 36.3736 8.016C37.6216 7.28 39.0616 6.912 40.6936 6.912C42.3416 6.912 43.7896 7.28 45.0376 8.016C46.2856 8.752 47.2536 9.776 47.9416 11.088C48.6456 12.384 48.9976 13.888 48.9976 15.6C48.9976 17.312 48.6456 18.824 47.9416 20.136C47.2536 21.432 46.2856 22.448 45.0376 23.184C43.7896 23.92 42.3416 24.288 40.6936 24.288ZM40.6936 21.384C41.7176 21.384 42.5976 21.152 43.3336 20.688C44.0856 20.208 44.6696 19.536 45.0856 18.672C45.5016 17.808 45.7096 16.784 45.7096 15.6C45.7096 14.4 45.5016 13.376 45.0856 12.528C44.6696 11.664 44.0856 11 43.3336 10.536C42.5976 10.072 41.7176 9.84 40.6936 9.84C39.6856 9.84 38.8056 10.072 38.0536 10.536C37.3016 11 36.7176 11.664 36.3016 12.528C35.8856 13.376 35.6776 14.4 35.6776 15.6C35.6776 16.784 35.8856 17.808 36.3016 18.672C36.7176 19.536 37.3016 20.208 38.0536 20.688C38.8056 21.152 39.6856 21.384 40.6936 21.384ZM50.49 24V11.904H53.37L53.682 14.136C53.97 13.608 54.33 13.16 54.762 12.792C55.21 12.424 55.714 12.136 56.274 11.928C56.85 11.72 57.482 11.616 58.17 11.616V15.048H57.066C56.586 15.048 56.138 15.104 55.722 15.216C55.322 15.328 54.97 15.512 54.666 15.768C54.362 16.008 54.13 16.344 53.97 16.776C53.81 17.208 53.73 17.752 53.73 18.408V24H50.49ZM59.1823 24V11.904H62.4223V24H59.1823ZM60.8143 10.248C60.2383 10.248 59.7583 10.08 59.3743 9.744C59.0063 9.392 58.8223 8.952 58.8223 8.424C58.8223 7.896 59.0063 7.464 59.3743 7.128C59.7583 6.776 60.2383 6.6 60.8143 6.6C61.4063 6.6 61.8863 6.776 62.2543 7.128C62.6383 7.464 62.8303 7.896 62.8303 8.424C62.8303 8.952 62.6383 9.392 62.2543 9.744C61.8863 10.08 61.4063 10.248 60.8143 10.248ZM69.4402 24.288C68.3362 24.288 67.3762 24.112 66.5602 23.76C65.7442 23.408 65.1042 22.92 64.6402 22.296C64.1762 21.672 63.9122 20.968 63.8482 20.184H67.0642C67.1442 20.488 67.2802 20.768 67.4722 21.024C67.6642 21.264 67.9202 21.456 68.2402 21.6C68.5602 21.744 68.9442 21.816 69.3922 21.816C69.8242 21.816 70.1762 21.76 70.4482 21.648C70.7202 21.52 70.9202 21.352 71.0482 21.144C71.1922 20.936 71.2642 20.72 71.2642 20.496C71.2642 20.16 71.1682 19.904 70.9762 19.728C70.7842 19.536 70.5042 19.384 70.1362 19.272C69.7682 19.16 69.3202 19.048 68.7922 18.936C68.2162 18.824 67.6482 18.688 67.0882 18.528C66.5442 18.352 66.0562 18.136 65.6242 17.88C65.1922 17.624 64.8482 17.296 64.5922 16.896C64.3362 16.496 64.2082 16 64.2082 15.408C64.2082 14.688 64.4002 14.048 64.7842 13.488C65.1682 12.912 65.7282 12.456 66.4642 12.12C67.2002 11.784 68.0882 11.616 69.1282 11.616C70.5842 11.616 71.7362 11.944 72.5842 12.6C73.4322 13.256 73.9362 14.16 74.0962 15.312H71.0482C70.9522 14.944 70.7362 14.656 70.4002 14.448C70.0802 14.224 69.6482 14.112 69.1042 14.112C68.5282 14.112 68.0882 14.216 67.7842 14.424C67.4802 14.632 67.3282 14.904 67.3282 15.24C67.3282 15.464 67.4242 15.664 67.6162 15.84C67.8242 16.016 68.1122 16.168 68.4802 16.296C68.8482 16.408 69.2962 16.52 69.8242 16.632C70.7522 16.824 71.5682 17.048 72.2722 17.304C72.9762 17.544 73.5282 17.896 73.9282 18.36C74.3282 18.808 74.5282 19.464 74.5282 20.328C74.5282 21.096 74.3202 21.784 73.9042 22.392C73.4882 22.984 72.8962 23.448 72.1282 23.784C71.3762 24.12 70.4802 24.288 69.4402 24.288ZM80.1496 24.288C79.1416 24.288 78.3096 24.128 77.6536 23.808C76.9976 23.472 76.5096 23.032 76.1896 22.488C75.8856 21.928 75.7336 21.312 75.7336 20.64C75.7336 19.904 75.9176 19.256 76.2856 18.696C76.6696 18.136 77.2376 17.696 77.9896 17.376C78.7576 17.056 79.7176 16.896 80.8696 16.896H83.8696C83.8696 16.304 83.7896 15.816 83.6296 15.432C83.4696 15.032 83.2216 14.736 82.8856 14.544C82.5496 14.352 82.1016 14.256 81.5416 14.256C80.9336 14.256 80.4136 14.392 79.9816 14.664C79.5656 14.92 79.3096 15.32 79.2136 15.864H76.0696C76.1496 15 76.4296 14.256 76.9096 13.632C77.4056 12.992 78.0536 12.496 78.8536 12.144C79.6696 11.792 80.5736 11.616 81.5656 11.616C82.7016 11.616 83.6856 11.808 84.5176 12.192C85.3496 12.576 85.9896 13.128 86.4376 13.848C86.8856 14.568 87.1096 15.456 87.1096 16.512V24H84.3736L84.0136 22.152C83.8376 22.472 83.6296 22.76 83.3896 23.016C83.1496 23.272 82.8696 23.496 82.5496 23.688C82.2296 23.88 81.8696 24.024 81.4696 24.12C81.0696 24.232 80.6296 24.288 80.1496 24.288ZM80.9176 21.792C81.3336 21.792 81.7016 21.72 82.0216 21.576C82.3576 21.416 82.6456 21.208 82.8856 20.952C83.1256 20.68 83.3096 20.376 83.4376 20.04C83.5816 19.688 83.6776 19.312 83.7256 18.912V18.888H81.2536C80.7576 18.888 80.3496 18.952 80.0296 19.08C79.7256 19.192 79.5016 19.36 79.3576 19.584C79.2136 19.808 79.1416 20.064 79.1416 20.352C79.1416 20.672 79.2136 20.936 79.3576 21.144C79.5016 21.352 79.7096 21.512 79.9816 21.624C80.2536 21.736 80.5656 21.792 80.9176 21.792Z" fill="#0F0F0F"/>
</svg>
