<svg width="804" height="148" viewBox="0 0 804 148" fill="none" xmlns="http://www.w3.org/2000/svg">
<path d="M54.0169 34.9757C49.9356 34.9757 46.0944 35.6959 42.4933 37.1363C38.9722 38.5768 35.8912 40.7775 33.2504 43.7384C30.6096 46.6993 28.4889 50.4605 26.8884 55.0219C25.3679 59.5033 24.6077 64.825 24.6077 70.9869C24.6077 77.1488 25.3679 82.5105 26.8884 87.0719C28.4889 91.5533 30.6096 95.2745 33.2504 98.2354C35.8912 101.196 38.9722 103.397 42.4933 104.837C46.0944 106.278 49.9356 106.998 54.0169 106.998C58.0981 106.998 61.8993 106.278 65.4204 104.837C69.0215 103.397 72.1425 101.196 74.7833 98.2354C77.4242 95.2745 79.5048 91.5533 81.0253 87.0719C82.6258 82.5105 83.426 77.1488 83.426 70.9869C83.426 64.825 82.6258 59.5033 81.0253 55.0219C79.5048 50.4605 77.4242 46.6993 74.7833 43.7384C72.1425 40.7775 69.0215 38.5768 65.4204 37.1363C61.8993 35.6959 58.0981 34.9757 54.0169 34.9757ZM54.0169 26.573C61.2191 26.573 67.7411 27.5333 73.583 29.4539C79.5048 31.3745 84.5464 34.2154 88.7077 37.9766C92.949 41.7378 96.23 46.3792 98.5508 51.9009C100.871 57.4227 102.032 63.7846 102.032 70.9869C102.032 78.1891 100.871 84.5511 98.5508 90.0728C96.23 95.5946 92.949 100.236 88.7077 103.997C84.5464 107.758 79.5048 110.599 73.583 112.52C67.7411 114.44 61.2191 115.401 54.0169 115.401C46.8146 115.401 40.2526 114.44 34.3307 112.52C28.4089 110.599 23.3273 107.758 19.086 103.997C14.9247 100.236 11.6836 95.5946 9.36292 90.0728C7.12222 84.5511 6.00187 78.1891 6.00187 70.9869C6.00187 63.7846 7.12222 57.4227 9.36292 51.9009C11.6836 46.3792 14.9247 41.7378 19.086 37.9766C23.3273 34.2154 28.4089 31.3745 34.3307 29.4539C40.2526 27.5333 46.8146 26.573 54.0169 26.573ZM157.896 58.9831H143.492C138.05 58.9831 133.889 60.4636 131.008 63.4245C128.127 66.3054 126.686 70.6268 126.686 76.3886V113H109.881V76.3886C109.881 68.226 112.442 61.9041 117.564 57.4227C122.765 52.8612 130.208 50.5805 139.891 50.5805H157.896V58.9831ZM178.856 113H162.051V51.7809H178.856V113ZM179.456 35.5758C179.456 37.9766 178.616 40.0973 176.935 41.9378C175.335 43.6984 173.174 44.5786 170.453 44.5786C167.732 44.5786 165.532 43.6984 163.851 41.9378C162.251 40.0973 161.45 37.9766 161.45 35.5758C161.45 33.1751 162.251 31.0944 163.851 29.3339C165.532 27.4933 167.732 26.573 170.453 26.573C173.094 26.573 175.255 27.4933 176.935 29.3339C178.616 31.0944 179.456 33.1751 179.456 35.5758ZM204.669 63.7846C204.669 65.6252 205.469 67.3057 207.069 68.8262C208.75 70.3467 211.551 71.6671 215.472 72.7875L234.078 78.1891C239.84 79.8697 244.281 82.1504 247.402 85.0313C250.523 87.9122 252.083 91.6333 252.083 96.1948C252.083 99.0757 251.483 101.716 250.283 104.117C249.082 106.438 247.122 108.439 244.401 110.119C241.68 111.8 238.159 113.08 233.838 113.96C229.516 114.921 224.195 115.401 217.873 115.401C214.592 115.401 211.351 115.161 208.15 114.681C205.029 114.2 202.028 113.56 199.147 112.76C196.346 111.88 193.785 110.919 191.464 109.879C189.144 108.759 187.143 107.598 185.463 106.398L190.264 99.1957C193.625 101.276 197.546 103.117 202.028 104.717C206.589 106.238 211.871 106.998 217.873 106.998C223.875 106.998 228.076 106.198 230.477 104.597C232.877 102.997 234.078 100.996 234.078 98.5955C234.078 96.7549 233.237 95.1144 231.557 93.674C229.876 92.1535 226.915 90.7931 222.674 89.5927L204.068 84.191C198.947 82.6705 194.745 80.5099 191.464 77.709C188.263 74.8281 186.663 70.9869 186.663 66.1854C186.663 63.6246 187.223 61.2639 188.343 59.1032C189.544 56.8625 191.384 54.9419 193.865 53.3414C196.346 51.7409 199.507 50.5005 203.348 49.6202C207.189 48.6599 211.831 48.1798 217.272 48.1798C223.915 48.1798 229.916 49.1001 235.278 50.9406C240.72 52.7012 245.121 54.7818 248.482 57.1826L243.681 64.3848C240.4 62.3042 236.679 60.5036 232.517 58.9831C228.356 57.3826 223.274 56.5824 217.272 56.5824C213.031 56.5824 209.87 57.2626 207.79 58.623C205.709 59.9835 204.669 61.704 204.669 63.7846ZM271.918 93.1938C271.918 100.796 276.519 104.597 285.722 104.597H302.527V81.7903H285.722C276.519 81.7903 271.918 85.5914 271.918 93.1938ZM302.527 73.3876C302.527 67.6258 301.007 63.3845 297.966 60.6637C295.005 57.9428 291.124 56.5824 286.322 56.5824C282.721 56.5824 279.2 57.1426 275.759 58.2629C272.318 59.3032 269.237 60.7437 266.516 62.5843L262.315 55.382C264.075 54.1816 265.996 53.1413 268.076 52.261C270.237 51.3808 272.438 50.6605 274.679 50.1004C276.919 49.4602 279.12 48.98 281.281 48.6599C283.521 48.3398 285.602 48.1798 287.523 48.1798C292.644 48.1798 297.166 48.78 301.087 49.9803C305.008 51.1807 308.329 52.9012 311.05 55.1419C313.771 57.3826 315.811 60.0635 317.172 63.1845C318.612 66.2254 319.332 69.6265 319.332 73.3876V113H285.722C274.839 113 266.796 111.359 261.594 108.078C256.473 104.797 253.912 99.8359 253.912 93.1938C253.912 86.5517 256.473 81.5902 261.594 78.3092C266.796 75.0282 274.839 73.3876 285.722 73.3876H302.527Z" fill="#FEFEFE"/>
<path d="M443.468 90.7931C443.468 94.2341 442.748 97.4752 441.307 100.516C439.867 103.477 437.506 106.078 434.225 108.319C431.024 110.479 426.823 112.2 421.621 113.48C416.5 114.761 410.178 115.401 402.655 115.401C398.414 115.401 394.253 115.081 390.171 114.44C386.17 113.8 382.329 112.88 378.648 111.68C375.047 110.479 371.686 109.039 368.565 107.358C365.524 105.598 362.883 103.677 360.642 101.596L366.644 94.3942C371.205 98.3154 376.527 101.316 382.609 103.397C388.691 105.398 395.373 106.398 402.655 106.398C410.738 106.398 416.46 105.278 419.821 103.037C423.182 100.796 424.862 97.7152 424.862 93.794C424.862 90.7531 423.542 88.1923 420.901 86.1116C418.26 84.031 413.779 81.9903 407.457 79.9897L384.65 72.7875C377.127 70.3867 371.446 67.3458 367.604 63.6646C363.763 59.9034 361.843 55.1419 361.843 49.3801C361.843 46.4192 362.523 43.5783 363.883 40.8575C365.324 38.0566 367.524 35.6159 370.485 33.5352C373.446 31.3745 377.207 29.694 381.769 28.4936C386.41 27.2132 391.972 26.573 398.454 26.573C402.375 26.573 406.256 26.8931 410.098 27.5333C414.019 28.1735 417.74 29.0938 421.261 30.2942C424.862 31.4946 428.183 32.975 431.224 34.7356C434.345 36.4161 437.026 38.2967 439.267 40.3773L433.265 47.5796C428.703 43.6584 423.582 40.6974 417.9 38.6968C412.218 36.6162 405.736 35.5758 398.454 35.5758C392.452 35.5758 387.931 36.6162 384.89 38.6968C381.929 40.7775 380.448 43.3383 380.448 46.3792C380.448 48.0597 380.728 49.5402 381.289 50.8206C381.849 52.021 382.769 53.1813 384.05 54.3017C385.41 55.342 387.17 56.3423 389.331 57.3026C391.492 58.1829 394.173 59.1432 397.374 60.1835L420.061 67.3858C427.343 69.7065 433.065 72.7474 437.226 76.5086C441.387 80.2698 443.468 85.0313 443.468 90.7931ZM454.872 58.9831H443.468V50.5805H454.872V31.3745H471.677V50.5805H490.283V58.9831H471.677V90.1929C471.677 93.2338 471.997 95.8346 472.637 97.9953C473.357 100.076 474.278 101.797 475.398 103.157C476.598 104.437 477.959 105.398 479.479 106.038C481 106.678 482.6 106.998 484.281 106.998C486.682 106.998 489.002 106.638 491.243 105.918C493.484 105.118 495.364 104.277 496.885 103.397L500.486 111.199C498.085 112.4 495.324 113.4 492.203 114.2C489.162 115.001 486.121 115.401 483.08 115.401C474.038 115.401 467.075 113.16 462.194 108.679C457.312 104.197 454.872 98.0353 454.872 90.1929V58.9831ZM500.439 50.5805H517.244V88.3923C517.244 94.1541 518.685 98.3154 521.566 100.876C524.446 103.357 528.608 104.597 534.049 104.597H549.654V50.5805H566.46V113H534.049C522.606 113 514.123 110.959 508.602 106.878C503.16 102.717 500.439 96.5549 500.439 88.3923V50.5805ZM625.93 104.597V58.9831H610.925C608.204 58.9831 605.683 59.4233 603.363 60.3036C601.122 61.1038 599.161 62.4242 597.481 64.2648C595.88 66.1054 594.6 68.4661 593.64 71.347C592.759 74.2279 592.319 77.709 592.319 81.7903C592.319 85.8715 592.759 89.3526 593.64 92.2335C594.6 95.1144 595.88 97.4752 597.481 99.3157C599.161 101.156 601.122 102.517 603.363 103.397C605.683 104.197 608.204 104.597 610.925 104.597H625.93ZM610.925 113C605.403 113 600.362 112.28 595.8 110.839C591.319 109.399 587.478 107.318 584.277 104.597C581.076 101.877 578.595 98.5955 576.834 94.7543C575.154 90.9131 574.314 86.5918 574.314 81.7903C574.314 76.9888 575.154 72.6674 576.834 68.8262C578.595 64.985 581.076 61.704 584.277 58.9831C587.478 56.2623 591.319 54.1816 595.8 52.7412C600.362 51.3007 605.403 50.5805 610.925 50.5805H625.93V28.9738H642.735V113H610.925ZM670.892 113H654.087V51.7809H670.892V113ZM671.492 35.5758C671.492 37.9766 670.652 40.0973 668.972 41.9378C667.371 43.6984 665.21 44.5786 662.49 44.5786C659.769 44.5786 657.568 43.6984 655.887 41.9378C654.287 40.0973 653.487 37.9766 653.487 35.5758C653.487 33.1751 654.287 31.0944 655.887 29.3339C657.568 27.4933 659.769 26.573 662.49 26.573C665.13 26.573 667.291 27.4933 668.972 29.3339C670.652 31.0944 671.492 33.1751 671.492 35.5758ZM715.911 107.598C718.472 107.598 720.872 107.118 723.113 106.158C725.354 105.198 727.314 103.717 728.995 101.716C730.675 99.6358 731.996 96.955 732.956 93.674C733.997 90.3929 734.517 86.4317 734.517 81.7903C734.517 77.1488 733.997 73.1876 732.956 69.9066C731.996 66.6255 730.675 63.9847 728.995 61.9841C727.314 59.9034 725.354 58.383 723.113 57.4227C720.872 56.4624 718.472 55.9822 715.911 55.9822C713.35 55.9822 710.949 56.4624 708.709 57.4227C706.468 58.383 704.507 59.9034 702.827 61.9841C701.146 63.9847 699.786 66.6255 698.746 69.9066C697.785 73.1876 697.305 77.1488 697.305 81.7903C697.305 86.4317 697.785 90.3929 698.746 93.674C699.786 96.955 701.146 99.6358 702.827 101.716C704.507 103.717 706.468 105.198 708.709 106.158C710.949 107.118 713.35 107.598 715.911 107.598ZM715.911 48.1798C721.273 48.1798 726.194 48.94 730.675 50.4605C735.237 51.9009 739.118 54.0616 742.319 56.9425C745.52 59.7434 748.001 63.2645 749.761 67.5058C751.602 71.6671 752.522 76.4286 752.522 81.7903C752.522 87.232 751.602 92.0335 749.761 96.1948C748.001 100.356 745.52 103.877 742.319 106.758C739.118 109.559 735.237 111.68 730.675 113.12C726.194 114.641 721.273 115.401 715.911 115.401C710.469 115.401 705.508 114.641 701.026 113.12C696.545 111.68 692.704 109.559 689.503 106.758C686.302 103.877 683.781 100.356 681.94 96.1948C680.18 92.0335 679.299 87.232 679.299 81.7903C679.299 76.4286 680.18 71.6671 681.94 67.5058C683.781 63.2645 686.302 59.7434 689.503 56.9425C692.704 54.0616 696.545 51.9009 701.026 50.4605C705.508 48.94 710.469 48.1798 715.911 48.1798Z" fill="#FEFEFE" fill-opacity="0.5"/>
<path d="M800.758 42.836C800.758 45.5335 800.26 48.0062 799.265 50.2541C798.269 52.502 796.872 54.4448 795.074 56.0826C793.308 57.6882 791.204 58.9246 788.764 59.7917C786.323 60.6908 783.658 61.1404 780.768 61.1404C777.877 61.1404 775.212 60.6908 772.771 59.7917C770.331 58.9246 768.211 57.6882 766.413 56.0826C764.647 54.4448 763.266 52.502 762.27 50.2541C761.275 48.0062 760.777 45.5335 760.777 42.836C760.777 40.1385 761.275 37.6657 762.27 35.4178C763.266 33.1699 764.647 31.2431 766.413 29.6375C768.211 27.9997 770.331 26.7473 772.771 25.8803C775.212 24.9811 777.877 24.5315 780.768 24.5315C783.658 24.5315 786.323 24.9811 788.764 25.8803C791.204 26.7473 793.308 27.9997 795.074 29.6375C796.872 31.2431 798.269 33.1699 799.265 35.4178C800.26 37.6657 800.758 40.1385 800.758 42.836ZM766.076 42.836C766.076 45.0518 766.445 47.0588 767.184 48.8572C767.954 50.6234 768.998 52.1327 770.315 53.3851C771.663 54.6375 773.221 55.6009 774.987 56.2753C776.785 56.9496 778.712 57.2868 780.768 57.2868C782.823 57.2868 784.733 56.9496 786.5 56.2753C788.298 55.6009 789.856 54.6375 791.172 53.3851C792.489 52.1327 793.532 50.6234 794.303 48.8572C795.074 47.0588 795.459 45.0518 795.459 42.836C795.459 40.6202 795.074 38.6291 794.303 36.8629C793.532 35.0646 792.489 33.5392 791.172 32.2868C789.856 31.0344 788.298 30.071 786.5 29.3966C784.733 28.7223 782.823 28.3851 780.768 28.3851C778.712 28.3851 776.785 28.7223 774.987 29.3966C773.221 30.071 771.663 31.0344 770.315 32.2868C768.998 33.5392 767.954 35.0646 767.184 36.8629C766.445 38.6291 766.076 40.6202 766.076 42.836ZM790.642 39.9458C790.642 41.4551 790.273 42.7396 789.534 43.7993C788.796 44.8591 787.752 45.678 786.403 46.256L791.124 52.9516H785.103L781.057 47.1712H781.008H777.636V52.9516H772.338V32.7203H781.008C784.027 32.7203 786.387 33.3465 788.089 34.599C789.791 35.8514 790.642 37.6336 790.642 39.9458ZM784.862 39.9458C784.862 38.3722 784.461 37.2643 783.658 36.6221C782.855 35.9477 781.972 35.6105 781.008 35.6105H777.636V44.281H781.008C781.972 44.281 782.855 43.9599 783.658 43.3176C784.461 42.6433 784.862 41.5193 784.862 39.9458Z" fill="white"/>
</svg>
