<svg width="1043" height="193" viewBox="0 0 1043 193" fill="none" xmlns="http://www.w3.org/2000/svg">
<path d="M70.084 44.7675C64.7888 44.7675 59.805 45.702 55.1328 47.5709C50.5643 49.4398 46.5669 52.2951 43.1406 56.1367C39.7143 59.9783 36.9628 64.8583 34.8863 70.7765C32.9135 76.5909 31.9272 83.4954 31.9272 91.4902C31.9272 99.485 32.9135 106.441 34.8863 112.36C36.9628 118.174 39.7143 123.002 43.1406 126.844C46.5669 130.685 50.5643 133.541 55.1328 135.41C59.805 137.278 64.7888 138.213 70.084 138.213C75.3793 138.213 80.3111 137.278 84.8795 135.41C89.5518 133.541 93.6011 130.685 97.0274 126.844C100.454 123.002 103.153 118.174 105.126 112.36C107.203 106.441 108.241 99.485 108.241 91.4902C108.241 83.4954 107.203 76.5909 105.126 70.7765C103.153 64.8583 100.454 59.9783 97.0274 56.1367C93.6011 52.2951 89.5518 49.4398 84.8795 47.5709C80.3111 45.702 75.3793 44.7675 70.084 44.7675ZM70.084 33.8656C79.4286 33.8656 87.8906 35.1115 95.47 37.6034C103.153 40.0952 109.694 43.7811 115.094 48.6611C120.596 53.541 124.853 59.563 127.864 66.7272C130.875 73.8913 132.381 82.1457 132.381 91.4902C132.381 100.835 130.875 109.089 127.864 116.253C124.853 123.417 120.596 129.439 115.094 134.319C109.694 139.199 103.153 142.885 95.47 145.377C87.8906 147.869 79.4286 149.115 70.084 149.115C60.7395 149.115 52.2256 147.869 44.5423 145.377C36.859 142.885 30.2659 139.199 24.763 134.319C19.364 129.439 15.1589 123.417 12.1479 116.253C9.24071 109.089 7.78711 100.835 7.78711 91.4902C7.78711 82.1457 9.24071 73.8913 12.1479 66.7272C15.1589 59.563 19.364 53.541 24.763 48.6611C30.2659 43.7811 36.859 40.0952 44.5423 37.6034C52.2256 35.1115 60.7395 33.8656 70.084 33.8656ZM204.862 75.916H186.173C179.113 75.916 173.713 77.8368 169.976 81.6784C166.238 85.4163 164.369 91.023 164.369 98.4986V146H142.565V98.4986C142.565 87.9081 145.888 79.7057 152.533 73.8913C159.281 67.9731 168.937 65.014 181.501 65.014H204.862V75.916ZM232.056 146H210.252V66.5714H232.056V146ZM232.835 45.5462C232.835 48.6611 231.745 51.4125 229.564 53.8006C227.488 56.0848 224.684 57.2269 221.154 57.2269C217.624 57.2269 214.769 56.0848 212.588 53.8006C210.512 51.4125 209.473 48.6611 209.473 45.5462C209.473 42.4314 210.512 39.7318 212.588 37.4476C214.769 35.0596 217.624 33.8656 221.154 33.8656C224.58 33.8656 227.384 35.0596 229.564 37.4476C231.745 39.7318 232.835 42.4314 232.835 45.5462ZM265.547 82.1457C265.547 84.5337 266.585 86.7141 268.662 88.6868C270.842 90.6596 274.476 92.3727 279.563 93.8263L303.704 100.835C311.179 103.015 316.942 105.974 320.991 109.712C325.04 113.45 327.065 118.278 327.065 124.196C327.065 127.934 326.286 131.36 324.729 134.475C323.171 137.486 320.628 140.082 317.097 142.262C313.567 144.443 308.999 146.104 303.392 147.246C297.785 148.492 290.881 149.115 282.678 149.115C278.421 149.115 274.216 148.803 270.063 148.18C266.014 147.557 262.12 146.727 258.383 145.689C254.749 144.546 251.426 143.3 248.415 141.951C245.404 140.497 242.808 138.992 240.628 137.434L246.858 128.09C251.218 130.789 256.306 133.177 262.12 135.254C268.039 137.227 274.891 138.213 282.678 138.213C290.465 138.213 295.916 137.175 299.031 135.098C302.146 133.021 303.704 130.426 303.704 127.311C303.704 124.923 302.613 122.794 300.433 120.925C298.253 118.953 294.411 117.188 288.908 115.63L264.768 108.622C258.123 106.649 252.672 103.846 248.415 100.212C244.262 96.474 242.185 91.4902 242.185 85.2605C242.185 81.938 242.912 78.8751 244.366 76.0717C245.923 73.1645 248.311 70.6726 251.53 68.5961C254.749 66.5195 258.85 64.9102 263.833 63.7681C268.817 62.5221 274.839 61.8992 281.9 61.8992C290.517 61.8992 298.304 63.0932 305.261 65.4812C312.321 67.7655 318.032 70.465 322.393 73.5798L316.163 82.9244C311.906 80.2248 307.078 77.8887 301.679 75.916C296.28 73.8394 289.687 72.8011 281.9 72.8011C276.397 72.8011 272.295 73.6837 269.596 75.4487C266.896 77.2138 265.547 79.4461 265.547 82.1457ZM352.799 120.303C352.799 130.166 358.769 135.098 370.709 135.098H392.513V105.507H370.709C358.769 105.507 352.799 110.439 352.799 120.303ZM392.513 94.605C392.513 87.1294 390.54 81.6265 386.595 78.0964C382.753 74.5662 377.718 72.8011 371.488 72.8011C366.816 72.8011 362.247 73.5279 357.783 74.9815C353.318 76.3313 349.321 78.2002 345.79 80.5882L340.339 71.2437C342.624 69.6863 345.116 68.3365 347.815 67.1944C350.618 66.0523 353.474 65.1178 356.381 64.391C359.288 63.5604 362.143 62.9374 364.947 62.5221C367.854 62.1068 370.553 61.8992 373.045 61.8992C379.69 61.8992 385.557 62.6779 390.644 64.2353C395.732 65.7927 400.041 68.025 403.571 70.9322C407.101 73.8394 409.749 77.3177 411.514 81.367C413.383 85.3124 414.317 89.7251 414.317 94.605V146H370.709C356.589 146 346.154 143.872 339.405 139.615C332.76 135.358 329.437 128.92 329.437 120.303C329.437 111.685 332.76 105.247 339.405 100.99C346.154 96.7335 356.589 94.605 370.709 94.605H392.513ZM575.376 117.188C575.376 121.652 574.442 125.857 572.573 129.803C570.704 133.644 567.641 137.019 563.384 139.926C559.231 142.729 553.78 144.962 547.031 146.623C540.386 148.284 532.184 149.115 522.424 149.115C516.921 149.115 511.522 148.7 506.227 147.869C501.035 147.038 496.052 145.844 491.276 144.287C486.603 142.729 482.243 140.861 478.193 138.68C474.248 136.396 470.821 133.904 467.914 131.204L475.701 121.86C481.62 126.948 488.524 130.841 496.415 133.541C504.306 136.136 512.976 137.434 522.424 137.434C532.911 137.434 540.334 135.981 544.695 133.073C549.056 130.166 551.236 126.169 551.236 121.081C551.236 117.136 549.523 113.813 546.097 111.114C542.671 108.414 536.856 105.767 528.654 103.171L499.063 93.8263C489.303 90.7115 481.931 86.766 476.947 81.9899C471.964 77.11 469.472 70.9322 469.472 63.4566C469.472 59.6149 470.354 55.929 472.119 52.3989C473.988 48.7649 476.843 45.5981 480.685 42.8986C484.527 40.0952 489.407 37.9149 495.325 36.3574C501.347 34.6962 508.563 33.8656 516.973 33.8656C522.061 33.8656 527.096 34.2809 532.08 35.1115C537.168 35.9421 541.996 37.1361 546.564 38.6936C551.236 40.251 555.545 42.1718 559.491 44.456C563.54 46.6364 567.018 49.0764 569.925 51.7759L562.138 61.1205C556.22 56.0329 549.575 52.1912 542.203 49.5955C534.832 46.896 526.421 45.5462 516.973 45.5462C509.186 45.5462 503.32 46.896 499.374 49.5955C495.533 52.2951 493.612 55.6176 493.612 59.563C493.612 61.7434 493.975 63.6642 494.702 65.3255C495.429 66.8829 496.623 68.3884 498.284 69.842C500.049 71.1918 502.333 72.4896 505.137 73.7356C507.94 74.8777 511.418 76.1236 515.571 77.4734L545.007 86.8179C554.455 89.8289 561.879 93.7744 567.278 98.6543C572.677 103.534 575.376 109.712 575.376 117.188ZM590.172 75.916H575.376V65.014H590.172V40.0952H611.976V65.014H636.116V75.916H611.976V116.409C611.976 120.354 612.391 123.729 613.222 126.532C614.156 129.232 615.35 131.464 616.804 133.229C618.361 134.89 620.126 136.136 622.099 136.967C624.072 137.798 626.148 138.213 628.329 138.213C631.444 138.213 634.455 137.746 637.362 136.811C640.269 135.773 642.709 134.683 644.682 133.541L649.354 143.664C646.239 145.221 642.657 146.519 638.608 147.557C634.662 148.596 630.717 149.115 626.771 149.115C615.039 149.115 606.006 146.208 599.672 140.393C593.339 134.579 590.172 126.584 590.172 116.409V75.916ZM649.293 65.014H671.097V114.073C671.097 121.548 672.966 126.948 676.704 130.27C680.442 133.489 685.841 135.098 692.901 135.098H713.148V65.014H734.951V146H692.901C678.054 146 667.048 143.352 659.884 138.057C652.823 132.658 649.293 124.663 649.293 114.073V65.014ZM812.111 135.098V75.916H792.643C789.113 75.916 785.842 76.487 782.831 77.6291C779.924 78.6674 777.38 80.3806 775.2 82.7686C773.123 85.1567 771.462 88.2196 770.216 91.9574C769.074 95.6952 768.503 100.212 768.503 105.507C768.503 110.802 769.074 115.319 770.216 119.057C771.462 122.794 773.123 125.857 775.2 128.245C777.38 130.633 779.924 132.399 782.831 133.541C785.842 134.579 789.113 135.098 792.643 135.098H812.111ZM792.643 146C785.479 146 778.938 145.066 773.02 143.197C767.205 141.328 762.221 138.628 758.068 135.098C753.915 131.568 750.696 127.311 748.412 122.327C746.232 117.343 745.142 111.737 745.142 105.507C745.142 99.2773 746.232 93.6706 748.412 88.6868C750.696 83.7031 753.915 79.4461 758.068 75.916C762.221 72.3858 767.205 69.6863 773.02 67.8174C778.938 65.9485 785.479 65.014 792.643 65.014H812.111V36.9804H833.915V146H792.643ZM870.447 146H848.643V66.5714H870.447V146ZM871.226 45.5462C871.226 48.6611 870.136 51.4125 867.955 53.8006C865.879 56.0848 863.075 57.2269 859.545 57.2269C856.015 57.2269 853.16 56.0848 850.979 53.8006C848.903 51.4125 847.865 48.6611 847.865 45.5462C847.865 42.4314 848.903 39.7318 850.979 37.4476C853.16 35.0596 856.015 33.8656 859.545 33.8656C862.972 33.8656 865.775 35.0596 867.955 37.4476C870.136 39.7318 871.226 42.4314 871.226 45.5462ZM928.857 138.992C932.179 138.992 935.294 138.369 938.201 137.123C941.108 135.877 943.652 133.956 945.833 131.36C948.013 128.661 949.726 125.182 950.972 120.925C952.322 116.669 952.997 111.529 952.997 105.507C952.997 99.485 952.322 94.3455 950.972 90.0885C949.726 85.8316 948.013 82.4052 945.833 79.8095C943.652 77.11 941.108 75.1373 938.201 73.8913C935.294 72.6454 932.179 72.0224 928.857 72.0224C925.534 72.0224 922.419 72.6454 919.512 73.8913C916.605 75.1373 914.061 77.11 911.881 79.8095C909.7 82.4052 907.935 85.8316 906.586 90.0885C905.34 94.3455 904.717 99.485 904.717 105.507C904.717 111.529 905.34 116.669 906.586 120.925C907.935 125.182 909.7 128.661 911.881 131.36C914.061 133.956 916.605 135.877 919.512 137.123C922.419 138.369 925.534 138.992 928.857 138.992ZM928.857 61.8992C935.813 61.8992 942.199 62.8855 948.013 64.8583C953.931 66.7272 958.967 69.5305 963.12 73.2684C967.273 76.9023 970.492 81.4708 972.776 86.9737C975.164 92.3727 976.358 98.5505 976.358 105.507C976.358 112.567 975.164 118.797 972.776 124.196C970.492 129.595 967.273 134.164 963.12 137.901C958.967 141.535 953.931 144.287 948.013 146.156C942.199 148.128 935.813 149.115 928.857 149.115C921.796 149.115 915.359 148.128 909.545 146.156C903.73 144.287 898.746 141.535 894.593 137.901C890.44 134.164 887.17 129.595 884.782 124.196C882.497 118.797 881.355 112.567 881.355 105.507C881.355 98.5505 882.497 92.3727 884.782 86.9737C887.17 81.4708 890.44 76.9023 894.593 73.2684C898.746 69.5305 903.73 66.7272 909.545 64.8583C915.359 62.8855 921.796 61.8992 928.857 61.8992Z" fill="#0F0F0F"/>
<path d="M1038.94 56.1923C1038.94 59.6921 1038.3 62.9003 1037 65.8169C1035.71 68.7334 1033.9 71.2542 1031.57 73.3791C1029.27 75.4623 1026.55 77.0664 1023.38 78.1914C1020.21 79.358 1016.75 79.9413 1013 79.9413C1009.25 79.9413 1005.8 79.358 1002.63 78.1914C999.464 77.0664 996.714 75.4623 994.38 73.3791C992.089 71.2542 990.297 68.7334 989.006 65.8169C987.714 62.9003 987.068 59.6921 987.068 56.1923C987.068 52.6924 987.714 49.4842 989.006 46.5676C990.297 43.6511 992.089 41.1512 994.38 39.0679C996.714 36.943 999.464 35.3181 1002.63 34.1931C1005.8 33.0265 1009.25 32.4432 1013 32.4432C1016.75 32.4432 1020.21 33.0265 1023.38 34.1931C1026.55 35.3181 1029.27 36.943 1031.57 39.0679C1033.9 41.1512 1035.71 43.6511 1037 46.5676C1038.3 49.4842 1038.94 52.6924 1038.94 56.1923ZM993.943 56.1923C993.943 59.0671 994.422 61.6712 995.38 64.0044C996.38 66.296 997.734 68.2543 999.443 69.8792C1001.19 71.5042 1003.21 72.7541 1005.51 73.6291C1007.84 74.504 1010.34 74.9415 1013 74.9415C1015.67 74.9415 1018.15 74.504 1020.44 73.6291C1022.78 72.7541 1024.8 71.5042 1026.5 69.8792C1028.21 68.2543 1029.57 66.296 1030.57 64.0044C1031.57 61.6712 1032.07 59.0671 1032.07 56.1923C1032.07 53.3174 1031.57 50.7341 1030.57 48.4426C1029.57 46.1093 1028.21 44.1302 1026.5 42.5053C1024.8 40.8804 1022.78 39.6304 1020.44 38.7555C1018.15 37.8805 1015.67 37.443 1013 37.443C1010.34 37.443 1007.84 37.8805 1005.51 38.7555C1003.21 39.6304 1001.19 40.8804 999.443 42.5053C997.734 44.1302 996.38 46.1093 995.38 48.4426C994.422 50.7341 993.943 53.3174 993.943 56.1923ZM1025.82 52.4424C1025.82 54.4007 1025.34 56.0673 1024.38 57.4422C1023.42 58.8172 1022.07 59.8796 1020.32 60.6296L1026.44 69.3167H1018.63L1013.38 61.817H1013.32H1008.94V69.3167H1002.07V43.0678H1013.32C1017.23 43.0678 1020.3 43.8802 1022.5 45.5052C1024.71 47.1301 1025.82 49.4425 1025.82 52.4424ZM1018.32 52.4424C1018.32 50.4008 1017.8 48.9634 1016.75 48.1301C1015.71 47.2551 1014.57 46.8176 1013.32 46.8176H1008.94V58.0672H1013.32C1014.57 58.0672 1015.71 57.6505 1016.75 56.8172C1017.8 55.9423 1018.32 54.484 1018.32 52.4424Z" fill="#0F0F0F"/>
</svg>
