<svg width="20" height="24" viewBox="0 0 20 24" fill="none" xmlns="http://www.w3.org/2000/svg">
<g clip-path="url(#clip0_2103_2999)">
<path d="M16.9384 6.97348L15.1566 8.75532C18.0823 11.6811 18.0823 16.3887 15.1566 19.2705C12.2308 22.1962 7.52322 22.1962 4.64146 19.2705C1.7157 16.3447 1.7157 11.6371 4.64146 8.75532L9.28307 4.11371L9.94302 3.45377V-0.0439453L2.9476 6.95148C-0.946075 10.8452 -0.946075 17.1366 2.9476 21.0303C6.84128 24.924 13.1328 24.924 16.9604 21.0303C20.8321 17.1366 20.8321 10.8891 16.9384 6.97348Z" fill="#EE4C2C"/>
<path d="M13.4405 6.55573C14.1573 6.55573 14.7384 5.97466 14.7384 5.25786C14.7384 4.54105 14.1573 3.95996 13.4405 3.95996C12.7237 3.95996 12.1426 4.54105 12.1426 5.25786C12.1426 5.97466 12.7237 6.55573 13.4405 6.55573Z" fill="#EE4C2C"/>
</g>
<defs>
<clipPath id="clip0_2103_2999">
<rect width="19.8643" height="24" fill="white"/>
</clipPath>
</defs>
</svg>
