<svg width="39" height="24" viewBox="0 0 39 24" fill="none" xmlns="http://www.w3.org/2000/svg">
<path d="M11.35 11.6924L10.3369 15.8841H12.3503L11.3729 11.6924H11.35Z" fill="#F7981F"/>
<path d="M1.46777 16.2541V16.8642C1.46777 19.8972 4.74625 22.965 8.78777 22.965H30.3447C34.3862 22.965 37.6647 19.8963 37.6647 16.8642V16.2541C37.6647 13.4346 34.8269 9.89413 31.1783 9.58268C31.0968 7.06177 29.033 5.04375 26.4946 5.04375C25.509 5.04375 24.5948 5.34971 23.84 5.86818C22.3927 2.64375 19.1618 0.393066 15.3979 0.393066C10.2873 0.393066 6.14503 4.53444 6.14503 9.6468C6.14503 9.73841 6.15602 9.82543 6.15877 9.9152C3.41709 10.7094 1.46777 13.9192 1.46777 16.2541ZM13.1004 19.0526L12.5765 16.9686H10.0876L9.53892 19.0526H8.12182L10.5392 10.5491H12.2779L14.5166 19.0526H13.1004ZM21.3557 19.0526H19.7838L18.6882 12.6459H18.6644L17.5807 19.0526H16.0088L14.3646 10.5491H15.7349L16.8534 17.1583H16.8782L17.9966 10.5491H19.4266L20.5698 17.194H20.5936L21.7011 10.5491H23.0467L21.3557 19.0526ZM26.3325 19.2184C24.2247 19.2184 23.7484 17.8141 23.7484 16.6224V16.4199H25.1059V16.6343C25.1059 17.6703 25.5585 18.1943 26.4992 18.1943C27.3566 18.1943 27.7844 17.586 27.7844 16.954C27.7844 16.0609 27.3328 15.6679 26.5707 15.4425L25.6409 15.1201C24.4015 14.6438 23.8666 14.0016 23.8666 12.787C23.8666 11.238 24.9145 10.3805 26.5102 10.3805C28.6895 10.3805 28.9157 11.7381 28.9157 12.6184V12.8099H27.5582V12.6312C27.5582 11.8563 27.2128 11.4038 26.3673 11.4038C25.7838 11.4038 25.2241 11.7262 25.2241 12.6312C25.2241 13.3576 25.5933 13.7259 26.4992 14.0712L27.4153 14.4056C28.618 14.8334 29.1429 15.4902 29.1429 16.6563C29.1438 18.4691 28.0473 19.2184 26.3325 19.2184Z" fill="#F7981F"/>
<path d="M10.5385 10.5488L8.12109 19.0523H9.53819L10.0869 16.9684H12.5758L13.0997 19.0523H14.5168L12.278 10.5488H10.5385ZM10.3361 15.8838L11.3483 11.692H11.3712L12.3477 15.8838H10.3361Z" fill="white"/>
<path d="M20.5933 17.1937H20.5685L19.4253 10.5488H17.9963L16.8778 17.1571H16.8531L15.7346 10.5488H14.3643L16.0085 19.0523H17.5804L18.6632 12.6456H18.6879L19.7835 19.0523H21.3554L23.0455 10.5488H21.7007L20.5933 17.1937Z" fill="white"/>
<path d="M27.4159 14.4083L26.4999 14.074C25.5948 13.7286 25.2247 13.3604 25.2247 12.634C25.2247 11.729 25.7844 11.4065 26.368 11.4065C27.2135 11.4065 27.5588 11.859 27.5588 12.634V12.8126H28.9164V12.6212C28.9164 11.7409 28.6901 10.3833 26.5109 10.3833C24.9151 10.3833 23.8672 11.2407 23.8672 12.7897C23.8672 14.0044 24.4022 14.6465 25.6415 15.1228L26.5713 15.4453C27.3335 15.6706 27.7851 16.0645 27.7851 16.9567C27.7851 17.5879 27.3564 18.197 26.4999 18.197C25.5591 18.197 25.1066 17.6731 25.1066 16.637V16.4227H23.749V16.6251C23.749 17.8169 24.2263 19.2212 26.3331 19.2212C28.048 19.2212 29.1435 18.4719 29.1435 16.6609C29.1435 15.492 28.6186 14.8352 27.4159 14.4083Z" fill="white"/>
</svg>
