<svg width="24" height="24" viewBox="0 0 24 24" fill="none" xmlns="http://www.w3.org/2000/svg">
<path d="M8.3346 1.63599H14.8441L8.0866 21.6577C8.01715 21.8635 7.88492 22.0423 7.70854 22.1689C7.53215 22.2956 7.32049 22.3637 7.10335 22.3637H2.03735C1.87282 22.3638 1.71066 22.3246 1.56427 22.2495C1.41789 22.1744 1.29148 22.0656 1.19552 21.9319C1.09955 21.7983 1.03679 21.6437 1.01241 21.481C0.988038 21.3183 1.00276 21.1521 1.05535 20.9962L7.3511 2.34199C7.42052 2.13617 7.55277 1.95731 7.7292 1.83061C7.90564 1.70391 8.11738 1.636 8.3346 1.63599Z" fill="url(#paint0_linear_2103_3107)"/>
<path d="M17.7939 15.0654H7.47144C7.37547 15.0653 7.2817 15.0941 7.20233 15.1481C7.12297 15.202 7.06169 15.2786 7.02648 15.3679C6.99127 15.4572 6.98376 15.555 7.00494 15.6486C7.02611 15.7422 7.07499 15.8273 7.14519 15.8927L13.7782 22.0837C13.9713 22.2638 14.2256 22.364 14.4897 22.3639H20.3347L17.7939 15.0654Z" fill="#0078D4"/>
<path d="M8.33425 1.63624C8.11466 1.6354 7.90056 1.70479 7.72321 1.83428C7.54586 1.96377 7.41457 2.14657 7.3485 2.35599L1.06275 20.9795C1.00662 21.1359 0.988998 21.3036 1.01137 21.4683C1.03375 21.633 1.09547 21.7899 1.19131 21.9257C1.28714 22.0615 1.41428 22.1723 1.56196 22.2486C1.70965 22.3248 1.87353 22.3644 2.03975 22.364H7.2365C7.43005 22.3294 7.61095 22.2441 7.76073 22.1167C7.9105 21.9893 8.02378 21.8245 8.089 21.639L9.3425 17.9447L13.82 22.121C14.0076 22.2762 14.243 22.362 14.4865 22.364H20.3097L17.7558 15.0655L10.3105 15.0672L14.8673 1.63624H8.33425Z" fill="url(#paint1_linear_2103_3107)"/>
<path d="M16.6489 2.34123C16.5795 2.13574 16.4475 1.95718 16.2713 1.8307C16.0951 1.70422 15.8837 1.63621 15.6669 1.63623H8.41211C8.62897 1.63624 8.84037 1.70427 9.01653 1.83075C9.19269 1.95722 9.32475 2.13576 9.39411 2.34123L15.6901 20.9962C15.7427 21.1522 15.7575 21.3184 15.7331 21.4811C15.7088 21.6439 15.646 21.7985 15.5501 21.9322C15.4541 22.0658 15.3277 22.1748 15.1813 22.2499C15.0349 22.325 14.8727 22.3642 14.7081 22.3642H21.9631C22.1277 22.3642 22.2898 22.325 22.4362 22.2498C22.5826 22.1747 22.709 22.0657 22.8049 21.9321C22.9008 21.7984 22.9636 21.6438 22.9879 21.4811C23.0122 21.3183 22.9975 21.1521 22.9449 20.9962L16.6489 2.34123Z" fill="url(#paint2_linear_2103_3107)"/>
<defs>
<linearGradient id="paint0_linear_2103_3107" x1="10.7071" y1="3.17199" x2="3.94685" y2="23.1435" gradientUnits="userSpaceOnUse">
<stop stop-color="#114A8B"/>
<stop offset="1" stop-color="#0669BC"/>
</linearGradient>
<linearGradient id="paint1_linear_2103_3107" x1="12.8185" y1="12.4795" x2="11.2547" y2="13.0082" gradientUnits="userSpaceOnUse">
<stop stop-opacity="0.3"/>
<stop offset="0.071" stop-opacity="0.2"/>
<stop offset="0.321" stop-opacity="0.1"/>
<stop offset="0.623" stop-opacity="0.05"/>
<stop offset="1" stop-opacity="0"/>
</linearGradient>
<linearGradient id="paint2_linear_2103_3107" x1="11.9589" y1="2.58973" x2="19.3796" y2="22.36" gradientUnits="userSpaceOnUse">
<stop stop-color="#3CCBF4"/>
<stop offset="1" stop-color="#2892DF"/>
</linearGradient>
</defs>
</svg>
