<svg width="23" height="24" viewBox="0 0 23 24" fill="none" xmlns="http://www.w3.org/2000/svg">
<g clip-path="url(#clip0_2103_3049)">
<path d="M9.51169 4.886L5.51563 2.86914L1.12891 5.0582L5.23366 7.11919L9.51169 4.886Z" fill="#4DABCF"/>
<path d="M11.3445 5.81055L15.5343 7.92642L11.1874 10.109L7.07617 8.04481L11.3445 5.81055Z" fill="#4DABCF"/>
<path d="M16.9405 2.89941L21.2454 5.05834L17.3947 6.99125L13.1963 4.87323L16.9405 2.89941Z" fill="#4DABCF"/>
<path d="M15.088 1.96956L11.2124 0.0258789L7.37891 1.93942L11.3728 3.95305L15.088 1.96956Z" fill="#4DABCF"/>
<path d="M12.0586 18.6576V23.9462L16.7531 21.6033L16.7488 16.3125L12.0586 18.6576Z" fill="#4DABCF"/>
<path d="M16.7467 14.4658L16.7413 9.23096L12.0586 11.5588V16.7958L16.7467 14.4658Z" fill="#4DABCF"/>
<path d="M22.3829 13.4854V18.7944L18.3782 20.7919L18.375 15.5076L22.3829 13.4854Z" fill="#4DABCF"/>
<path d="M22.3823 11.6288V6.42627L18.3701 8.42053L18.3733 13.6661L22.3823 11.6288Z" fill="#4DABCF"/>
<path d="M10.4007 11.5589L7.23875 9.96819V16.8389C7.23875 16.8389 3.37076 8.60998 3.01345 7.87061C2.96718 7.77482 2.77776 7.67043 2.72933 7.6446C2.03193 7.28083 0 6.25195 0 6.25195V18.3951L2.81112 19.9018V13.552C2.81112 13.552 6.63713 20.9049 6.67695 20.9856C6.71677 21.0663 7.09883 21.8401 7.50996 22.1124C8.05561 22.4751 10.3986 23.8839 10.3986 23.8839L10.4007 11.5589Z" fill="#4D77CF"/>
</g>
<defs>
<clipPath id="clip0_2103_3049">
<rect width="22.3857" height="24" fill="white"/>
</clipPath>
</defs>
</svg>
