<svg width="25" height="24" viewBox="0 0 25 24" fill="none" xmlns="http://www.w3.org/2000/svg">
<g clip-path="url(#clip0_2103_3075)">
<path d="M12.2735 0.343852C12.0611 0.354553 11.853 0.407224 11.6613 0.498774L3.30729 4.49042C3.09106 4.59368 2.90108 4.74393 2.75144 4.93001C2.6018 5.11609 2.49635 5.33321 2.44293 5.56526L0.381932 14.5315C0.334341 14.7381 0.329015 14.952 0.366269 15.1607C0.403524 15.3694 0.482601 15.5685 0.598823 15.7463C0.627004 15.7898 0.657312 15.8318 0.689639 15.8724L6.47197 23.0618C6.62164 23.2479 6.81165 23.3981 7.02787 23.5013C7.2441 23.6045 7.48099 23.6581 7.72096 23.658L16.9938 23.6559C17.2337 23.656 17.4706 23.6026 17.6868 23.4996C17.903 23.3966 18.0931 23.2466 18.2428 23.0608L24.023 15.8702C24.1728 15.6841 24.2783 15.4669 24.3318 15.2348C24.3852 15.0026 24.3852 14.7615 24.3318 14.5294L22.2676 5.56312C22.2142 5.33107 22.1087 5.11395 21.9591 4.92787C21.8094 4.74179 21.6195 4.59154 21.4032 4.48828L13.0481 0.498774C12.8071 0.383611 12.5407 0.330341 12.2735 0.343852Z" fill="#326CE5"/>
<path d="M12.3566 3.39502C12.0805 3.39505 11.8565 3.64378 11.8566 3.9506C11.8566 3.95531 11.8575 3.95981 11.8576 3.96449C11.8572 4.00618 11.8552 4.05641 11.8566 4.0927C11.8632 4.26967 11.9017 4.40511 11.925 4.56815C11.967 4.91712 12.0023 5.20638 11.9805 5.47525C11.9594 5.57663 11.8847 5.66936 11.8181 5.73381L11.8064 5.94536C11.5063 5.97022 11.2042 6.01574 10.9025 6.08425C9.60413 6.37904 8.48628 7.04782 7.63522 7.95079C7.58 7.91312 7.48338 7.84381 7.45465 7.82258C7.36538 7.83464 7.27515 7.86218 7.15763 7.79374C6.93386 7.64311 6.73006 7.43519 6.48345 7.18473C6.37046 7.06492 6.28863 6.95084 6.15438 6.83536C6.12389 6.80913 6.07736 6.77366 6.04326 6.74668C5.9383 6.66299 5.81451 6.61935 5.69496 6.61526C5.54124 6.61 5.39327 6.67009 5.29643 6.79155C5.12428 7.00747 5.1794 7.33749 5.4193 7.52876C5.42174 7.5307 5.42433 7.53221 5.42678 7.53411C5.45975 7.56083 5.50012 7.59507 5.53042 7.61744C5.67288 7.72263 5.80302 7.77648 5.94497 7.85998C6.24402 8.04466 6.49195 8.1978 6.68859 8.38244C6.76538 8.46429 6.7788 8.60853 6.78902 8.67091L6.94929 8.81408C6.09135 10.1052 5.69429 11.7 5.92894 13.325L5.71953 13.3859C5.66434 13.4572 5.58635 13.5693 5.50478 13.6028C5.24749 13.6838 4.95794 13.7136 4.60836 13.7502C4.44424 13.7639 4.30263 13.7557 4.12864 13.7887C4.09035 13.7959 4.03699 13.8098 3.99509 13.8197C3.99363 13.82 3.99227 13.8204 3.99081 13.8207C3.98853 13.8213 3.98553 13.8224 3.98333 13.8229C3.68861 13.8941 3.49929 14.165 3.56024 14.4319C3.6212 14.6988 3.90908 14.8612 4.20557 14.7973C4.20771 14.7968 4.21082 14.7967 4.21305 14.7962C4.21639 14.7954 4.21934 14.7938 4.22266 14.793C4.26399 14.7839 4.31579 14.7738 4.35194 14.7642C4.523 14.7184 4.64689 14.6511 4.80068 14.5921C5.13153 14.4735 5.40556 14.3743 5.67252 14.3357C5.78402 14.327 5.90149 14.4045 5.95993 14.4372L6.17788 14.3998C6.67945 15.9549 7.73058 17.2118 9.06157 18.0004L8.97075 18.2184C9.00349 18.303 9.03959 18.4175 9.01521 18.5011C8.91815 18.7528 8.75191 19.0184 8.56261 19.3146C8.47096 19.4514 8.37715 19.5576 8.29444 19.7142C8.27465 19.7516 8.24944 19.8092 8.23033 19.8488C8.10182 20.1238 8.19609 20.4405 8.44295 20.5593C8.69136 20.6789 8.99971 20.5528 9.13315 20.2772C9.13336 20.2769 9.13403 20.2766 9.13422 20.2762C9.13436 20.2759 9.13408 20.2754 9.13422 20.2751C9.15323 20.236 9.18016 20.1847 9.19619 20.148C9.26704 19.9857 9.29061 19.8466 9.34043 19.6896C9.47273 19.3573 9.54542 19.0086 9.72754 18.7913C9.77742 18.7318 9.85872 18.7089 9.94302 18.6864L10.0563 18.4812C11.2166 18.9266 12.5154 19.0461 13.8129 18.7515C14.1088 18.6843 14.3946 18.5974 14.6708 18.493C14.7026 18.5494 14.7618 18.658 14.7777 18.6853C14.8633 18.7132 14.9568 18.7276 15.033 18.8402C15.1693 19.073 15.2625 19.3484 15.376 19.6811C15.4258 19.838 15.4504 19.9771 15.5213 20.1394C15.5374 20.1764 15.5642 20.2285 15.5832 20.2676C15.7164 20.544 16.0257 20.6706 16.2745 20.5508C16.5214 20.4319 16.6157 20.1152 16.4871 19.8403C16.468 19.8007 16.4418 19.7431 16.422 19.7056C16.3392 19.5491 16.2455 19.4439 16.1538 19.3071C15.9645 19.011 15.8075 18.7649 15.7104 18.5133C15.6698 18.3835 15.7172 18.3027 15.7489 18.2184C15.7299 18.1967 15.6894 18.0741 15.6655 18.0165C17.0487 17.1997 18.069 15.896 18.5481 14.3902C18.6128 14.4004 18.7253 14.4203 18.7618 14.4276C18.837 14.378 18.9062 14.3133 19.0417 14.324C19.3087 14.3626 19.5827 14.4617 19.9136 14.5804C20.0674 14.6393 20.1913 14.7077 20.3623 14.7535C20.3985 14.7632 20.4503 14.7722 20.4916 14.7813C20.4949 14.7821 20.4979 14.7837 20.5012 14.7845C20.5035 14.785 20.5066 14.785 20.5087 14.7855C20.8052 14.8494 21.0931 14.6871 21.154 14.4201C21.2149 14.1532 21.0257 13.8823 20.7309 13.8111C20.6881 13.8014 20.6273 13.7848 20.5856 13.7769C20.4116 13.744 20.27 13.7521 20.1059 13.7385C19.7563 13.7018 19.4668 13.672 19.2095 13.591C19.1046 13.5503 19.03 13.4255 18.9937 13.3741L18.7917 13.3154C18.8964 12.5579 18.8682 11.7696 18.687 10.9809C18.5042 10.1848 18.181 9.45665 17.75 8.81515C17.8018 8.76806 17.8996 8.68144 17.9274 8.65596C17.9355 8.56624 17.9285 8.47217 18.0214 8.37282C18.218 8.18818 18.466 8.03506 18.765 7.85036C18.907 7.76685 19.0382 7.71302 19.1806 7.60783C19.2129 7.58404 19.2568 7.54637 19.2907 7.51915C19.5305 7.32781 19.5858 6.99781 19.4136 6.78194C19.2414 6.56606 18.9077 6.54572 18.6678 6.73706C18.6337 6.7641 18.5873 6.79937 18.5567 6.82574C18.4224 6.94123 18.3395 7.0553 18.2265 7.17512C17.9799 7.42559 17.7761 7.63455 17.5524 7.78519C17.4554 7.84164 17.3134 7.82211 17.2489 7.81831L17.0587 7.954C15.9743 6.81683 14.4978 6.08979 12.9079 5.94856C12.9035 5.88193 12.8976 5.7615 12.8962 5.72526C12.8311 5.66298 12.7524 5.60981 12.7327 5.47525C12.7109 5.20638 12.7473 4.91712 12.7893 4.56815C12.8125 4.40511 12.8511 4.26967 12.8577 4.0927C12.8592 4.05247 12.8568 3.9941 12.8566 3.9506C12.8566 3.64378 12.6328 3.39499 12.3566 3.39502ZM11.7305 7.27341L11.582 9.8964L11.5713 9.90174C11.5613 10.1364 11.3682 10.3238 11.1311 10.3238C11.034 10.3238 10.9443 10.2926 10.8715 10.2394L10.8672 10.2415L8.71647 8.71686C9.37748 8.06687 10.223 7.58653 11.1974 7.3653C11.3753 7.32488 11.5533 7.2949 11.7305 7.27341ZM12.9838 7.27341C14.1214 7.41333 15.1734 7.92844 15.9796 8.71792L13.8428 10.233L13.8353 10.2298C13.6456 10.3683 13.3784 10.3339 13.2306 10.1486C13.17 10.0726 13.1382 9.98333 13.1344 9.8932L13.1323 9.89213L12.9838 7.27341ZM7.93652 9.6966L9.90029 11.4531L9.89815 11.4638C10.0754 11.6179 10.1015 11.8853 9.95371 12.0706C9.89315 12.1466 9.81209 12.1975 9.72507 12.2213L9.72293 12.2298L7.20571 12.9564C7.07759 11.7849 7.3537 10.6461 7.93652 9.6966ZM16.7628 9.69767C17.0546 10.1706 17.2755 10.6988 17.4071 11.2715C17.537 11.8372 17.5696 12.402 17.516 12.9478L14.986 12.2192L14.9839 12.2085C14.7573 12.1466 14.6181 11.9161 14.6708 11.6849C14.6924 11.5903 14.7427 11.5101 14.8108 11.451L14.8097 11.4456L16.7628 9.69767ZM11.9538 11.5888H12.7583L13.2584 12.2138L13.0789 12.9938L12.3566 13.341L11.6322 12.9927L11.4527 12.2127L11.9538 11.5888ZM14.533 13.7278C14.5672 13.7261 14.6012 13.7291 14.6345 13.7353L14.6388 13.7299L17.2425 14.1701C16.8615 15.2407 16.1323 16.1682 15.158 16.7888L14.1473 14.3475L14.1505 14.3432C14.0576 14.1275 14.1506 13.8745 14.3642 13.7716C14.4189 13.7452 14.476 13.7307 14.533 13.7278ZM10.1599 13.7385C10.3586 13.7412 10.5368 13.8792 10.583 14.0814C10.6046 14.1761 10.5941 14.2699 10.5584 14.3528L10.5659 14.3624L9.56587 16.7792C8.63088 16.1792 7.88616 15.2809 7.48778 14.1787L10.0691 13.7406L10.0734 13.7459C10.1022 13.7406 10.1315 13.7381 10.1599 13.7385ZM12.3406 14.7973C12.4098 14.7947 12.48 14.8089 12.5468 14.8411C12.6343 14.8832 12.7019 14.9496 12.7444 15.0291H12.7541L14.0266 17.3284C13.8614 17.3837 13.6916 17.4311 13.518 17.4705C12.5448 17.6914 11.5747 17.6245 10.6963 17.3252L11.9656 15.0302H11.9677C12.0439 14.8878 12.1883 14.8029 12.3406 14.7973Z" fill="white" stroke="white" stroke-width="0.25"/>
</g>
<defs>
<clipPath id="clip0_2103_3075">
<rect width="24.7139" height="24" fill="white"/>
</clipPath>
</defs>
</svg>
