<svg width="24" height="27" viewBox="0 0 24 27" fill="none" xmlns="http://www.w3.org/2000/svg">
<g clip-path="url(#clip0_2103_2976)">
<path d="M23.6947 20.2558C23.883 19.9296 24 19.5621 24 19.232V7.77564C24 7.4456 23.8831 7.07815 23.6947 6.75195L12 13.5039L23.6947 20.2558Z" fill="#00599C"/>
<path d="M13.0395 26.7602L22.9611 21.0321C23.2469 20.867 23.5067 20.5821 23.695 20.2558L12.0003 13.5039L0.305664 20.2559C0.493978 20.5821 0.753821 20.8671 1.03955 21.0321L10.9611 26.7602C11.5326 27.0903 12.468 27.0903 13.0395 26.7602Z" fill="#004482"/>
<path d="M23.6947 6.75192C23.5064 6.42565 23.2465 6.14071 22.9608 5.97569L13.0392 0.247529C12.4677 -0.0825098 11.5323 -0.0825098 10.9608 0.247529L1.03922 5.97569C0.467608 6.30565 0 7.11569 0 7.77569V19.2321C0 19.5621 0.116941 19.9296 0.305333 20.2558L12 13.5039L23.6947 6.75192Z" fill="#659AD2"/>
<path d="M12 21.5039C7.58878 21.5039 4 17.9151 4 13.5039C4 9.09269 7.58878 5.50391 12 5.50391C14.8464 5.50391 17.5011 7.03567 18.9279 9.5014L15.4657 11.5048C14.7516 10.2707 13.4235 9.50391 12 9.50391C9.79435 9.50391 8 11.2983 8 13.5039C8 15.7095 9.79435 17.5039 12 17.5039C13.4237 17.5039 14.7518 16.7372 15.466 15.5027L18.9282 17.5061C17.5013 19.9721 14.8466 21.5039 12 21.5039Z" fill="white"/>
<path d="M19.9997 13.0593H19.1107V12.1704H18.2219V13.0593H17.333V13.9481H18.2219V14.8371H19.1107V13.9481H19.9997V13.0593Z" fill="white"/>
<path d="M23.3337 13.0593H22.4447V12.1704H21.5559V13.0593H20.667V13.9481H21.5559V14.8371H22.4447V13.9481H23.3337V13.0593Z" fill="white"/>
</g>
<defs>
<clipPath id="clip0_2103_2976">
<rect width="24" height="27.0078" fill="white"/>
</clipPath>
</defs>
</svg>
