<svg width="30" height="24" viewBox="0 0 30 24" fill="none" xmlns="http://www.w3.org/2000/svg">
<g clip-path="url(#clip0_2103_3100)">
<path d="M19.5937 6.74065L23.3614 3.74564L22.6985 2.91902C21.1944 1.60766 19.3834 0.697375 17.4337 0.272585C15.4839 -0.152205 13.4584 -0.0777413 11.5451 0.48907C9.63915 1.0648 7.91058 2.115 6.52136 3.54123C5.13214 4.96747 4.12776 6.72306 3.60233 8.64348C3.54243 8.8691 4.22529 8.44781 4.52679 8.53167L9.73411 7.67709C9.73411 7.67709 9.98769 7.4295 10.1354 7.26777C12.4516 4.73998 16.377 4.40854 19.0506 6.56095L19.5937 6.74065Z" fill="#EA4335"/>
<path d="M26.2305 8.5855C25.6307 6.39225 24.4022 4.42246 22.6964 2.91895L19.0425 6.55289C19.8023 7.16928 20.4117 7.95065 20.8244 8.8377C21.2371 9.72475 21.4424 10.6942 21.4245 11.6724V12.3173C23.2215 12.3173 24.6791 13.7649 24.6791 15.5519C24.6791 17.3349 23.2215 18.7845 21.4245 18.7845L14.9214 18.7785L14.2725 18.8484V23.8541L14.9214 23.9599H21.4245C23.237 23.9777 25.0072 23.4124 26.474 22.3476C27.9408 21.2827 29.0265 19.7746 29.571 18.0457C30.1085 16.3193 30.0734 14.4653 29.4711 12.7604C28.8687 11.0556 27.7313 9.59108 26.2285 8.5855H26.2305Z" fill="#4285F4"/>
<path d="M8.40827 23.9579H14.9154V18.7785H8.40627C7.94304 18.7785 7.48581 18.6467 7.06451 18.457L6.15003 18.7366L3.5284 21.3262L3.30078 22.2188C4.76873 23.337 6.56093 23.9468 8.40627 23.9559L8.40827 23.9579Z" fill="#34A853"/>
<path d="M8.40758 7.13193C6.64901 7.13924 4.93649 7.6948 3.50852 8.72122C2.08055 9.74764 1.00821 11.1938 0.440862 12.8584C-0.120507 14.5219 -0.146399 16.3195 0.366826 17.9985C0.880051 19.6775 1.90658 21.1534 3.30209 22.2188L7.0758 18.4571C6.4346 18.1711 5.90407 17.684 5.56459 17.0695C5.22511 16.455 5.09519 15.7466 5.19451 15.0516C5.29382 14.3566 5.61697 13.7129 6.11498 13.218C6.61299 12.7232 7.25872 12.4042 7.95434 12.3093C8.65009 12.2095 9.35947 12.3376 9.97636 12.6745C10.5932 13.0114 11.0845 13.5389 11.3766 14.1782L15.1503 10.4284C14.3553 9.3973 13.3331 8.56343 12.1633 7.99169C10.9935 7.41995 9.70962 7.12573 8.40758 7.13193Z" fill="#FBBC05"/>
</g>
<defs>
<clipPath id="clip0_2103_3100">
<rect width="29.9501" height="24" fill="white"/>
</clipPath>
</defs>
</svg>
