<svg width="24" height="24" viewBox="0 0 24 24" fill="none" xmlns="http://www.w3.org/2000/svg">
<g clip-path="url(#clip0_2103_3082)">
<path d="M11.8832 0.00178482C9.63958 0.031752 7.44898 0.687854 5.55832 1.89613C3.66766 3.1044 2.15211 4.81679 1.18253 6.84026C0.212951 8.86374 -0.172104 11.1178 0.0707742 13.3484C0.313652 15.579 1.1748 17.6974 2.55715 19.4648L6.22515 16.7708C5.33384 15.6634 4.77219 14.3276 4.60444 12.916C4.4367 11.5044 4.66963 10.0741 5.2766 8.78874C5.88357 7.50334 6.84007 6.41472 8.03669 5.64741C9.2333 4.88009 10.6217 4.46506 12.0432 4.44978V7.31678L18.9512 2.17678C16.8829 0.72581 14.4094 -0.0353441 11.8832 0.00178482ZM21.4452 4.53478L17.7772 7.22978C18.6688 8.33713 19.2307 9.67308 19.3986 11.0848C19.5665 12.4965 19.3336 13.927 18.7266 15.2126C18.1196 16.4982 17.163 17.5869 15.9662 18.3543C14.7694 19.1217 13.3807 19.5367 11.9592 19.5518V16.6848L5.05115 21.8248C7.41612 23.4785 10.2962 24.2283 13.1674 23.9377C16.0385 23.6471 18.7099 22.3354 20.6956 20.2412C22.6812 18.1471 23.849 15.4097 23.9866 12.5272C24.1241 9.64464 23.2223 6.80849 21.4452 4.53478Z" fill="black"/>
</g>
<defs>
<clipPath id="clip0_2103_3082">
<rect width="24" height="24" fill="white"/>
</clipPath>
</defs>
</svg>
