<svg width="29" height="24" viewBox="0 0 29 24" fill="none" xmlns="http://www.w3.org/2000/svg">
<path fill-rule="evenodd" clip-rule="evenodd" d="M21.9402 20.2174C21.8735 20.0747 21.8434 20.003 21.8075 19.9345C20.8422 18.0983 19.8794 16.262 18.9042 14.4258C18.8065 14.2417 18.8189 14.133 18.9526 13.9742C20.4886 12.1802 22.0047 10.3762 23.5432 8.58961C23.5975 8.52658 23.6459 8.45984 23.6663 8.34743C23.2196 8.46381 22.773 8.57894 22.3238 8.6973C20.4702 9.18862 18.6018 9.67745 16.7655 10.1762C16.5931 10.2226 16.5149 10.1722 16.4281 10.0288C15.376 8.26951 14.3164 6.50525 13.2519 4.76829C13.1976 4.67722 13.1383 4.58888 13.0221 4.5127C12.9368 4.98168 12.8504 5.44818 12.7665 5.91716C12.4713 7.57225 12.176 9.2174 11.8832 10.8799C11.8512 11.0583 11.8075 11.2372 11.7921 11.4159C11.7775 11.5866 11.6894 11.6496 11.534 11.6988C9.34795 12.3861 7.16681 13.0784 4.98319 13.7707C4.88741 13.8008 4.79337 13.8405 4.69039 13.9335C6.47699 14.6432 8.26358 15.3529 10.075 16.0749C10.009 16.1273 9.96531 16.168 9.91693 16.199C8.80031 16.9211 7.6812 17.6432 6.56706 18.3677C6.43332 18.4551 6.32761 18.4675 6.17748 18.3998C4.8425 17.7993 3.49759 17.2087 2.15765 16.6132C1.55715 16.3452 1.01869 15.9903 0.599341 15.4742C-0.351028 14.3129 -0.162443 12.9928 1.10306 12.174C1.51745 11.9085 1.98891 11.7124 2.45789 11.5586C4.59932 10.8613 6.75068 10.1889 8.88467 9.51393C9.06482 9.45661 9.1477 9.37621 9.18244 9.18142C9.47028 7.52386 9.76556 5.85637 10.0658 4.21866C10.2256 3.33281 10.31 2.4271 10.7407 1.61321C10.9058 1.30056 11.103 0.995345 11.3412 0.7348C12.1948 -0.213087 13.3834 -0.247827 14.2941 0.653411C14.5993 0.958621 14.8598 1.31594 15.0856 1.68567C16.0782 3.30601 17.0559 4.93627 18.0385 6.57399C18.1539 6.76679 18.2576 6.8055 18.4702 6.74942C20.8648 6.10674 23.2593 5.47399 25.6662 4.84124C26.1625 4.71047 26.6613 4.66307 27.17 4.75811C28.2742 4.96456 28.7581 5.80525 28.3834 6.87473C28.2139 7.36108 27.9193 7.77051 27.5893 8.16008C25.9169 10.1278 24.2395 12.1055 22.5769 14.0658C22.4402 14.2266 22.4375 14.3412 22.5323 14.5223C23.5347 16.4107 24.5273 18.294 25.5347 20.2047C25.7732 20.6563 25.9566 21.1278 25.9615 21.6464C25.9732 22.8275 25.1079 23.7953 23.9342 23.969C23.2767 24.065 22.6663 23.9245 22.0484 23.7345C20.5472 23.2705 19.0459 22.8139 17.5323 22.3598C17.3926 22.3181 17.3392 22.2628 17.3142 22.1126C17.1415 21.0531 16.9519 19.996 16.7683 18.9365C16.7636 18.9074 16.7722 18.8764 16.7772 18.8114C18.4918 19.2854 20.2015 19.7519 21.9633 20.2407" fill="#E25A1C"/>
</svg>
