<svg width="45" height="24" viewBox="0 0 45 24" fill="none" xmlns="http://www.w3.org/2000/svg">
<g clip-path="url(#clip0_2103_3018)">
<path d="M34.1343 20.394C39.5693 14.9593 40.4726 7.05143 36.1518 2.73088C31.8315 -1.58918 23.9239 -0.686045 18.4892 4.74834C13.0545 10.1829 14.6267 20.5657 16.4721 22.4115C17.9634 23.9028 28.6999 25.8284 34.1343 20.394Z" fill="#F89939"/>
<path d="M11.8334 12.541C8.68048 9.38803 4.09194 8.86312 1.58456 11.3703C-0.92217 13.8772 -0.398069 18.4664 2.75553 21.6189C5.90912 24.7728 11.9337 23.8605 13.0038 22.7895C13.8697 21.9251 14.9873 15.6943 11.8334 12.541Z" fill="#3499CD"/>
<path d="M22.7119 19.0619C22.1549 19.5746 21.6663 19.953 21.2463 20.1962C20.8264 20.4401 20.4259 20.5619 20.0447 20.5619C19.6063 20.5619 19.2526 20.3919 18.9845 20.0519C18.7159 19.7115 18.582 19.2551 18.582 18.681C18.582 17.8207 18.7685 16.7879 19.1414 15.5837C19.5137 14.3786 19.9671 13.2681 20.4995 12.2521L22.0607 11.6741C22.1097 11.6578 22.1469 11.6494 22.1716 11.6494C22.2901 11.6494 22.3879 11.7367 22.463 11.9105C22.539 12.0851 22.5771 12.3197 22.5771 12.6147C22.5771 13.4505 22.3847 14.2598 21.9991 15.0424C21.6137 15.8254 21.0116 16.661 20.1922 17.5501C20.1593 17.9763 20.1429 18.269 20.1429 18.429C20.1429 18.7858 20.2084 19.068 20.3395 19.2771C20.4708 19.4865 20.6447 19.5905 20.862 19.5905C21.0836 19.5905 21.319 19.5113 21.5691 19.3514C21.8186 19.1913 22.1997 18.8597 22.7118 18.3554V19.0619H22.7119ZM20.3581 16.6592C20.8784 16.0807 21.3009 15.4319 21.6244 14.7141C21.9479 13.996 22.1095 13.3783 22.1095 12.8608C22.1095 12.71 22.0872 12.5874 22.0425 12.4953C21.9974 12.403 21.9396 12.3566 21.8701 12.3566C21.7191 12.3566 21.4984 12.734 21.2094 13.4891C20.9204 14.2439 20.6367 15.3008 20.3581 16.6592Z" fill="#010101"/>
<path d="M27.3099 19.0621C26.7896 19.5748 26.3227 19.9532 25.9086 20.1963C25.4946 20.4402 25.0383 20.562 24.5381 20.562C23.9807 20.562 23.5311 20.3837 23.1885 20.0276C22.8465 19.6706 22.6758 19.2018 22.6758 18.6198C22.6758 17.7513 22.9767 16.9655 23.5797 16.2628C24.1815 15.5598 24.8497 15.2085 25.5831 15.2085C25.9642 15.2085 26.2691 15.3072 26.4989 15.5038C26.7283 15.7007 26.8431 15.9585 26.8431 16.2782C26.8431 17.1266 25.9417 17.8146 24.1388 18.3433C24.3025 19.142 24.7306 19.5419 25.4232 19.5419C25.6938 19.5419 25.9517 19.4692 26.1973 19.3241C26.4437 19.1784 26.8142 18.8552 27.3101 18.3557L27.3099 19.0621ZM24.0892 17.9253C25.1379 17.63 25.6626 17.0854 25.6626 16.2904C25.6626 15.8971 25.519 15.7005 25.2326 15.7005C24.962 15.7005 24.7041 15.9061 24.4585 16.3183C24.212 16.7299 24.0892 17.2653 24.0892 17.9253Z" fill="#010101"/>
<path d="M33.8743 19.062C33.2186 19.6848 32.7493 20.091 32.4669 20.2797C32.1842 20.4681 31.9138 20.5621 31.6554 20.5621C31.0079 20.5621 30.7028 19.9907 30.7396 18.8473C30.3299 19.4331 29.9517 19.8654 29.6054 20.1446C29.2594 20.4232 28.902 20.5621 28.5328 20.5621C28.1727 20.5621 27.8665 20.3935 27.6141 20.0554C27.3617 19.7173 27.2363 19.3026 27.2363 18.8104C27.2363 18.1961 27.405 17.6101 27.7428 17.0525C28.0812 16.4951 28.5145 16.0449 29.0429 15.7006C29.5714 15.3564 30.039 15.1841 30.4442 15.1841C30.9565 15.1841 31.3152 15.4198 31.5201 15.8908L32.7763 15.1966H33.121L32.5784 16.9973C32.2999 17.9031 32.1601 18.524 32.1601 18.8598C32.1601 19.2121 32.2848 19.3883 32.535 19.3883C32.6941 19.3883 32.8703 19.3034 33.0631 19.1331C33.2558 18.9629 33.5257 18.7037 33.8739 18.3555V19.062H33.8743ZM29.3751 19.4005C29.7848 19.4005 30.1709 19.0513 30.5342 18.3528C30.8969 17.6539 31.078 17.0091 31.078 16.4192C31.078 16.1901 31.0264 16.0105 30.9245 15.8817C30.8216 15.7522 30.6844 15.688 30.5127 15.688C30.1027 15.688 29.714 16.0362 29.348 16.733C28.9813 17.4297 28.7976 18.071 28.7976 18.6564C28.7976 18.878 28.8521 19.0572 28.9606 19.1946C29.0691 19.332 29.2068 19.4005 29.3751 19.4005Z" fill="#010101"/>
<path d="M38.4659 19.0619C37.4373 20.0698 36.6442 20.5742 36.087 20.5742C35.8369 20.5742 35.6257 20.4686 35.454 20.2582C35.2823 20.047 35.1958 19.7856 35.1958 19.474C35.1958 18.8963 35.5055 18.1222 36.1241 17.1508C35.8207 17.3067 35.4891 17.4148 35.1284 17.4764C34.862 17.9681 34.4438 18.4969 33.8745 19.0617H33.7334V18.5092C34.0527 18.1774 34.3417 17.8206 34.5999 17.4395C34.2471 17.2837 34.0712 17.0521 34.0712 16.7453C34.0712 16.4294 34.1784 16.0925 34.3941 15.7335C34.6091 15.3754 34.905 15.1963 35.2823 15.1963C35.6019 15.1963 35.7614 15.3596 35.7614 15.6877C35.7614 15.9459 35.6693 16.3145 35.4846 16.7941C36.1647 16.7201 36.7589 16.2002 37.2673 15.2329L37.8264 15.2082L37.2548 16.7816C37.0173 17.4455 36.8636 17.8977 36.7941 18.1371C36.7246 18.3765 36.6895 18.589 36.6895 18.7731C36.6895 18.9454 36.7296 19.0831 36.8092 19.1848C36.8891 19.288 36.9969 19.3387 37.132 19.3387C37.2794 19.3387 37.421 19.2883 37.5562 19.1885C37.6913 19.0873 37.9946 18.81 38.466 18.3552V19.0619H38.4659Z" fill="#010101"/>
<path d="M44.5021 19.0619C43.5556 20.0623 42.7438 20.562 42.068 20.562C41.7935 20.562 41.5722 20.4657 41.4042 20.273C41.2358 20.0806 41.1519 19.8225 41.1519 19.4989C41.1519 19.0604 41.3324 18.3903 41.6932 17.4893C41.8856 17.0056 41.9822 16.6978 41.9822 16.5672C41.9822 16.4359 41.9305 16.3703 41.8286 16.3703C41.7713 16.3703 41.6951 16.3992 41.6011 16.4561C41.5146 16.5134 41.4143 16.594 41.2995 16.6962C41.1973 16.7902 41.0823 16.905 40.9553 17.0398C40.8444 17.1555 40.7255 17.2864 40.5992 17.4334L40.2545 17.8333C40.1032 18.0175 40.0089 18.2119 39.9721 18.417C39.9103 18.7652 39.8696 19.0852 39.8489 19.3764C39.8364 19.5931 39.8304 19.8858 39.8304 20.2553L38.472 20.5743C38.4272 20.0212 38.4043 19.6093 38.4043 19.3392C38.4043 18.6795 38.4812 18.0544 38.6351 17.4645C38.7886 16.874 39.0353 16.2106 39.3756 15.4728L40.8751 15.1841C40.5598 16.0325 40.3529 16.7001 40.2545 17.1874C40.9266 16.4377 41.4594 15.9187 41.8543 15.6294C42.2486 15.3404 42.5997 15.1966 42.9065 15.1966C43.115 15.1966 43.2892 15.2752 43.428 15.4327C43.5675 15.5902 43.6368 15.7881 43.6368 16.0246C43.6368 16.4176 43.4606 17.0651 43.1087 17.967C42.8667 18.5854 42.7457 18.9868 42.7457 19.1721C42.7457 19.4188 42.8463 19.542 43.0476 19.542C43.3472 19.542 43.8324 19.1465 44.5021 18.3557V19.0619Z" fill="#010101"/>
<path d="M35.2929 21.6768L33.5553 22.1686C33.4461 21.879 33.2849 21.5976 33.0718 21.3244C32.8641 21.0458 32.58 20.8163 32.2194 20.636C31.8588 20.4557 31.3971 20.3655 30.8343 20.3655C30.0639 20.3655 29.4219 20.5431 28.9083 20.8982C28.4001 21.2479 28.1461 21.6932 28.1461 22.2342C28.1461 22.715 28.3209 23.0947 28.6706 23.3734C29.0203 23.652 29.5667 23.8843 30.3098 24.07L32.1784 24.529C33.304 24.8022 34.1427 25.2202 34.6946 25.783C35.2464 26.3403 35.5223 27.0588 35.5223 27.9385C35.5223 28.6597 35.3147 29.3044 34.8995 29.8727C34.4897 30.4409 33.9159 30.889 33.1783 31.2168C32.4407 31.5446 31.5829 31.7086 30.6048 31.7086C29.3208 31.7086 28.2581 31.4299 27.4166 30.8726C26.5752 30.3153 26.0425 29.5011 25.8185 28.4302L27.6543 27.9713C27.8292 28.6488 28.1597 29.1569 28.646 29.4957C29.1378 29.8344 29.7798 30.0038 30.572 30.0038C31.4736 30.0038 32.1894 29.8126 32.7194 29.4301C33.2548 29.0422 33.5225 28.5777 33.5225 28.0368C33.5225 27.5997 33.3696 27.2336 33.0636 26.9386C32.7576 26.6381 32.2877 26.414 31.6539 26.2665L29.5558 25.7748C28.4029 25.5016 27.556 25.0781 27.015 24.5044C26.4796 23.9252 26.2119 23.2013 26.2119 22.3325C26.2119 21.6222 26.4113 20.9939 26.8102 20.4475C27.2145 19.9011 27.7636 19.4722 28.4575 19.1607C29.1569 18.8493 29.9492 18.6936 30.8343 18.6936C32.0801 18.6936 33.0581 18.9667 33.7684 19.5131C34.4842 20.0595 34.9923 20.7808 35.2929 21.6768ZM31.49 59.7086C30.3098 59.7086 29.2935 59.4299 28.4411 58.8726C27.5888 58.3153 26.9331 57.5476 26.4741 56.5695C26.0152 55.5915 25.7857 54.4741 25.7857 53.2174C25.7857 51.9389 26.0206 50.8106 26.4905 49.8326C26.9659 48.8491 27.627 48.0814 28.4739 47.5295C29.3263 46.9722 30.3207 46.6936 31.4572 46.6936C32.3423 46.6936 33.1401 46.8575 33.8504 47.1853C34.5607 47.5131 35.1426 47.9721 35.5961 48.5622C36.0496 49.1523 36.331 49.8408 36.4403 50.6276H34.506C34.3585 50.0539 34.0307 49.5457 33.5225 49.1031C33.0199 48.6551 32.3423 48.4311 31.49 48.4311C30.736 48.4311 30.0748 48.6278 29.5066 49.0212C28.9438 49.4091 28.504 49.9582 28.1871 50.6685C27.8756 51.3734 27.7199 52.2012 27.7199 53.1519C27.7199 54.1245 27.8729 54.9714 28.1789 55.6926C28.4903 56.4138 28.9274 56.9739 29.4902 57.3727C30.0584 57.7716 30.725 57.971 31.49 57.971C31.9927 57.971 32.4489 57.8836 32.8587 57.7088C33.2685 57.5339 33.6154 57.2826 33.8996 56.9548C34.1837 56.6269 34.3858 56.2335 34.506 55.7746H36.4403C36.331 56.5176 36.0605 57.187 35.6289 57.7825C35.2027 58.3726 34.6372 58.8425 33.9323 59.1922C33.233 59.5364 32.4188 59.7086 31.49 59.7086ZM26.3758 87.4463V74.8575H28.31V87.4463H26.3758ZM27.3593 72.7593C26.9823 72.7593 26.6572 72.6309 26.384 72.3741C26.1162 72.1173 25.9824 71.8086 25.9824 71.448C25.9824 71.0874 26.1162 70.7787 26.384 70.5219C26.6572 70.2651 26.9823 70.1367 27.3593 70.1367C27.7363 70.1367 28.0587 70.2651 28.3264 70.5219C28.5996 70.7787 28.7362 71.0874 28.7362 71.448C28.7362 71.8086 28.5996 72.1173 28.3264 72.3741C28.0587 72.6309 27.7363 72.7593 27.3593 72.7593ZM28.1789 110.857L28.1461 108.463H28.5395L34.0471 102.857H36.4403L30.572 108.791H30.4081L28.1789 110.857ZM26.3758 115.446V98.6612H28.31V115.446H26.3758ZM34.3749 115.446L29.4574 109.217L30.8343 107.873L36.8337 115.446H34.3749ZM26.3758 143.446V130.857H28.31V143.446H26.3758ZM27.3593 128.759C26.9823 128.759 26.6572 128.631 26.384 128.374C26.1162 128.117 25.9824 127.809 25.9824 127.448C25.9824 127.087 26.1162 126.779 26.384 126.522C26.6572 126.265 26.9823 126.137 27.3593 126.137C27.7363 126.137 28.0587 126.265 28.3264 126.522C28.5996 126.779 28.7362 127.087 28.7362 127.448C28.7362 127.809 28.5996 128.117 28.3264 128.374C28.0587 128.631 27.7363 128.759 27.3593 128.759ZM31.8506 158.857V160.497H25.3267V158.857H31.8506ZM27.2281 155.841H29.1624V167.84C29.1624 168.387 29.2416 168.796 29.4 169.069C29.564 169.337 29.7716 169.518 30.0229 169.61C30.2797 169.698 30.5502 169.742 30.8343 169.742C31.0474 169.742 31.2222 169.731 31.3588 169.709C31.4954 169.681 31.6047 169.66 31.6867 169.643L32.0801 171.381C31.9489 171.43 31.7659 171.479 31.531 171.528C31.296 171.583 30.9982 171.61 30.6376 171.61C30.0912 171.61 29.5558 171.493 29.0312 171.258C28.5122 171.023 28.0805 170.665 27.7363 170.184C27.3975 169.703 27.2281 169.097 27.2281 168.365V155.841Z" fill="white"/>
</g>
<defs>
<clipPath id="clip0_2103_3018">
<rect width="44.502" height="24" fill="white"/>
</clipPath>
</defs>
</svg>
