<svg preserveAspectRatio="none" width="100%" height="100%" overflow="visible" style="display: block;" viewBox="0 0 26.6406 20" fill="none" xmlns="http://www.w3.org/2000/svg">
<path id="Vector" d="M13.3203 20C5.9637 20 0 15.5228 0 10C0 4.47715 5.9637 0 13.3203 0C20.6769 0 26.6406 4.47715 26.6406 10C26.6406 15.5228 20.6769 20 13.3203 20ZM10.27 17.6674C8.98779 15.6259 8.20174 13.3742 8.02857 11H2.7465C3.27413 14.1765 6.28238 16.7747 10.27 17.6674ZM10.6971 11C10.8975 13.4388 11.8255 15.7297 13.3203 17.752C14.8151 15.7297 15.7431 13.4388 15.9435 11H10.6971ZM23.8941 11H18.6121C18.4389 13.3742 17.6529 15.6259 16.3707 17.6674C20.3582 16.7747 23.3665 14.1765 23.8941 11ZM2.7465 9H8.02857C8.20174 6.62577 8.98779 4.37407 10.27 2.33256C6.28238 3.22533 3.27413 5.8235 2.7465 9ZM10.6971 9H15.9435C15.7431 6.56122 14.8151 4.27025 13.3203 2.24799C11.8255 4.27025 10.8975 6.56122 10.6971 9ZM16.3707 2.33256C17.6529 4.37407 18.4389 6.62577 18.6121 9H23.8941C23.3665 5.8235 20.3582 3.22533 16.3707 2.33256Z" fill="var(--fill-0, #FEFEFE)"/>
</svg>
